<?xml version="1.0" encoding="utf-8"?>
<!-- Generator: Adobe Illustrator 25.4.1, SVG Export Plug-In . SVG Version: 6.00 Build 0)  -->
<svg version="1.1" xmlns="http://www.w3.org/2000/svg" xmlns:xlink="http://www.w3.org/1999/xlink" x="0px" y="0px"
	 viewBox="0 0 960 262.5" style="enable-background:new 0 0 960 262.5;" xml:space="preserve">
<style type="text/css">
	.st0{clip-path:url(#SVGID_00000050665280877738386360000014283546921112033702_);}
	.st1{fill:#FFFFFF;}
	.st2{clip-path:url(#SVGID_00000075849050201138415150000012194035330709763712_);}
	.st3{fill:none;stroke:#737373;stroke-width:0.7486;stroke-linecap:round;stroke-miterlimit:2.9943;}
	.st4{clip-path:url(#SVGID_00000100345612169549322130000004686669013956895666_);}
	.st5{clip-path:url(#SVGID_00000008134462392301073550000005569949708753077638_);}
	.st6{clip-path:url(#SVGID_00000027589290571263192460000005577426504153480623_);}
	.st7{clip-path:url(#SVGID_00000092418028989631110430000010570061396889762232_);}
	.st8{clip-path:url(#SVGID_00000147211582878858506470000004829839867187218073_);}
	.st9{clip-path:url(#SVGID_00000116935611001957244390000003612937591096043671_);}
	.st10{fill:#737373;}
	.st11{clip-path:url(#SVGID_00000177450961396061483130000002798869957711194543_);}
	.st12{clip-path:url(#SVGID_00000108283748934163157380000006814316145611264421_);}
	.st13{clip-path:url(#SVGID_00000119079277464836542720000014659048431351206323_);}
	.st14{clip-path:url(#SVGID_00000155866187991401586930000006756642337456132256_);}
	.st15{clip-path:url(#SVGID_00000159454282885015047740000005688338939147208065_);}
	.st16{clip-path:url(#SVGID_00000018231301162012395360000009430130583350098869_);}
	.st17{clip-path:url(#SVGID_00000080904882493159902890000007953771190258651779_);}
	.st18{clip-path:url(#SVGID_00000117664644658341132180000007217611320094080135_);}
	.st19{clip-path:url(#SVGID_00000078030172542892606880000018308494586491546755_);}
	.st20{clip-path:url(#SVGID_00000036930045381722171340000018419044812331487653_);}
	.st21{clip-path:url(#SVGID_00000133503206889087360300000001144419425693731209_);}
	.st22{clip-path:url(#SVGID_00000062880040887656970080000001395467757290970510_);}
	.st23{clip-path:url(#SVGID_00000053535211811481570320000003075336013077357492_);}
	.st24{clip-path:url(#SVGID_00000099624256484379976960000003884546282262822556_);}
	.st25{clip-path:url(#SVGID_00000008119016824807760290000006628688552834593428_);}
	.st26{fill:none;}
	.st27{fill:#FFFFFF;stroke:#000000;}
	.st28{font-family:'Poppins-Bold';}
	.st29{font-size:50px;}
	.st30{font-family:'Poppins-Light';}
	.st31{font-size:24px;}
</style>
<g id="Layer_1">
	<g>
		<defs>
			<rect id="SVGID_1_" x="0.9" width="958.2" height="262"/>
		</defs>
		<clipPath id="SVGID_00000177468612786554933410000014563772550767525506_">
			<use xlink:href="#SVGID_1_"  style="overflow:visible;"/>
		</clipPath>
		<g style="clip-path:url(#SVGID_00000177468612786554933410000014563772550767525506_);">
			<path class="st1" d="M0.9,0h958.2v269.5H0.9V0z"/>
			<path class="st1" d="M0.9,0h958.2v262H0.9V0z"/>
			<path d="M0.9,0h958.2v262H0.9V0z"/>
		</g>
	</g>
	<g>
		<defs>
			<rect id="SVGID_00000034050497648526882910000009764225749341848222_" x="0.9" y="26" width="958.2" height="1"/>
		</defs>
		<clipPath id="SVGID_00000050646698548214130000000008564388335382622652_">
			<use xlink:href="#SVGID_00000034050497648526882910000009764225749341848222_"  style="overflow:visible;"/>
		</clipPath>
		<g style="clip-path:url(#SVGID_00000050646698548214130000000008564388335382622652_);">
			<path class="st3" d="M1.3,26.6h957.4"/>
		</g>
	</g>
	<g>
		<defs>
			<rect id="SVGID_00000150807578752921132420000004153755786421271705_" x="0.9" y="235" width="958.2" height="1"/>
		</defs>
		<clipPath id="SVGID_00000060726691464759396390000003082593421053830840_">
			<use xlink:href="#SVGID_00000150807578752921132420000004153755786421271705_"  style="overflow:visible;"/>
		</clipPath>
		<g style="clip-path:url(#SVGID_00000060726691464759396390000003082593421053830840_);">
			<path class="st3" d="M1.3,235.4h957.4"/>
		</g>
	</g>
	<path class="st3" d="M27.4,0.4v261.2"/>
	<path class="st3" d="M933.2,0.4v261.2"/>
	<g>
		<defs>
			<rect id="SVGID_00000166652353755257586800000012454902106815695784_" x="0.9" width="113.1" height="117"/>
		</defs>
		<clipPath id="SVGID_00000113321853602534396790000006935020430816012935_">
			<use xlink:href="#SVGID_00000166652353755257586800000012454902106815695784_"  style="overflow:visible;"/>
		</clipPath>
		<g style="clip-path:url(#SVGID_00000113321853602534396790000006935020430816012935_);">
			<g>
				<defs>
					
						<rect id="SVGID_00000111171120720628496380000012134774052181250464_" x="5.8" y="2.9" transform="matrix(0.2969 -0.9549 0.9549 0.2969 -11.5104 102.3901)" width="116" height="112.3"/>
				</defs>
				<clipPath id="SVGID_00000086688595037977578180000010466966766210223758_">
					<use xlink:href="#SVGID_00000111171120720628496380000012134774052181250464_"  style="overflow:visible;"/>
				</clipPath>
				<g style="clip-path:url(#SVGID_00000086688595037977578180000010466966766210223758_);">
					<g>
						<defs>
							
								<rect id="SVGID_00000081616949985249100900000015996500562522760860_" x="5.8" y="2.9" transform="matrix(0.2969 -0.9549 0.9549 0.2969 -11.5104 102.3901)" width="116" height="112.3"/>
						</defs>
						<clipPath id="SVGID_00000013165198059103986210000009232941849403746207_">
							<use xlink:href="#SVGID_00000081616949985249100900000015996500562522760860_"  style="overflow:visible;"/>
						</clipPath>
						<g style="clip-path:url(#SVGID_00000013165198059103986210000009232941849403746207_);">
							<g>
								<defs>
									
										<rect id="SVGID_00000044154224324152537270000016559335005988424073_" x="5.8" y="2.9" transform="matrix(0.2969 -0.9549 0.9549 0.2969 -11.5597 102.3756)" width="115.9" height="112.3"/>
								</defs>
								<clipPath id="SVGID_00000171713720657099662230000003033003871020595604_">
									<use xlink:href="#SVGID_00000044154224324152537270000016559335005988424073_"  style="overflow:visible;"/>
								</clipPath>
								<g style="clip-path:url(#SVGID_00000171713720657099662230000003033003871020595604_);">
									<g>
										<defs>
											
												<rect id="SVGID_00000172399177008419783790000012144084055911753101_" x="5.8" y="2.9" transform="matrix(0.2969 -0.9549 0.9549 0.2969 -11.5051 102.3932)" width="115.9" height="112.3"/>
										</defs>
										<clipPath id="SVGID_00000136372644518877812740000011933164080568708237_">
											<use xlink:href="#SVGID_00000172399177008419783790000012144084055911753101_"  style="overflow:visible;"/>
										</clipPath>
										<g style="clip-path:url(#SVGID_00000136372644518877812740000011933164080568708237_);">
											<path class="st10" d="M27.9,51.1c0,0-2.2-1-2.9-3.5c-0.7-2.5-2.1-5.5-5.1-3.4S22.3,51.5,27.9,51.1z M29.1,51.9
												c-5.3,0.4-11.9-2.8-10.2-6.7c1.8-4.3,6-2.7,6.7,1.6C26.3,51,29.1,51.9,29.1,51.9z M56.5,33.1c0-0.1,0.1-0.1,0.1-0.1
												c-3.6-10.2-9.1-7.4-10.9-5.4c0.7,0.2,1.4,0.4,2,0.6c0.2-0.4,0.7-0.8,1.6-0.8c1.4-0.1,2,1.1,2,2.3
												C54,31.1,55.9,32.6,56.5,33.1z M50.5,29.3c-0.1-0.8-0.5-1.5-1.3-1.4c-0.5,0-0.8,0.2-1,0.5C49,28.7,49.8,29,50.5,29.3z
												 M41.3,26.8c1.1,0.1,2.1,0.3,3.1,0.5c0.4-3.7,2.1-7.9,6.1-11.2c8.4-7,6.5-16.1,6.5-16.1c10.5,5,11.2,17.5,10.6,25.1
												c0.7-0.2,1.4-0.4,2.1-0.6C69.8,18.6,68.3,10,64.4,4C59.8-3.1,53-4.3,50.5-4.5c1.5,0.6,2.9,1.9,3.9,4.4
												c3,7.9-3.4,14.2-9.6,19.5C42.4,21.3,41.5,24.1,41.3,26.8z M59.6,10.3c0.6,0.2,1,0.5,1.4,0.9c-0.7-3.3-1.7-5.9-2.5-7.5
												c0.3,2.2-0.2,4.3-1.3,6.3C57.8,9.9,58.6,9.9,59.6,10.3z M66.5,25.4C67.6,6.2,58,1.2,57.7,1c8.2,11.8,4.3,23.6,1.4,29.4
												c0.6-0.7,1.2-1.4,2-2c0.3-0.3,0.7-0.5,1-0.7c0.3-0.6,0.8-0.9,1.3-0.8C64.4,26.3,65.4,25.8,66.5,25.4z M56.7,16.4
												c3.7,1.2,4,6.1,3.8,8.7c1.3-4.2,1.3-8.4,0.8-11.9c-1.2-2.8-3.4-2.7-4.7-2.1c-0.4,0.7-1,1.4-1.5,2.2
												c0,0.7,0.4,1.3,1.6,1.5c2,0.4,2.7-2.2,1.5-2.5c-1.2-0.3-1.4,1.4-1.4,1.4s-0.2-2.1,1.6-1.7c1.8,0.4,0.9,3.4-1.2,3.4
												c-1.4,0-2.1-1-2.3-1.9c-0.7,0.9-1.5,1.8-2.3,2.7C53.6,15.8,54.9,15.8,56.7,16.4z M56.7,32.8c1.7-2.3,2.8-4.7,3.6-7
												c-0.9-12.3-9-8.4-9.8-7.1c-0.8,1.3-1.2,3.7,1.8,4.3s4-3.3,2.3-3.7c-1.8-0.4-2.1,2-2.1,2s-0.3-3.1,2.3-2.5
												c2.6,0.6,1.3,5-1.7,5.1c-3.1,0.1-4-3.3-3.5-4.5c0,0,0-0.1,0-0.1c-0.6,0.7-1.2,1.3-1.8,2c-1.6,1.8-2.4,3.8-2.8,5.7
												c0.6-1.4,2.1-2.8,5.4-2.6C54.9,24.7,56.3,30.7,56.7,32.8z M81.4,56.6C81.4,56.6,81.4,56.6,81.4,56.6c0,0,1,0.1,1.4,0.1
												c0.2,0,0.5,0.1,0.7,0.1c3.6-0.7,6.7-2.3,9-4.2C88.2,52.8,84.5,54.5,81.4,56.6z M68.9,58.5c-0.2,0.1-0.4,0.2-0.7,0.3
												C68.4,58.7,68.7,58.6,68.9,58.5C68.9,58.5,68.9,58.5,68.9,58.5z M66.2,59.6c-1.2,0.4-2.5,0.9-3.6,1
												c0.4,0.1,0.9,0.1,1.4,0.2C64.4,60.6,65.1,60.1,66.2,59.6z M61.2,60.3l-0.1-0.2c0,0.1,0,0.1-0.1,0.1
												C61.1,60.3,61.1,60.3,61.2,60.3z M64,61.4c-0.6-0.1-1.1-0.3-1.5-0.4c0.4,0.2,1,0.4,1.5,0.7C64,61.6,64,61.5,64,61.4z
												 M61.2,60.8c0.2,0.3,0.4,0.6,0.8,1.1c0-0.4,0-0.6,0-0.6l0-0.1C61.6,61,61.4,60.9,61.2,60.8z M62.4,61.3
												c0.2,0.3,0.8,0.8,1.6,1.4c0-0.2,0-0.5,0-0.7C63.4,61.8,62.8,61.5,62.4,61.3z M62.2,61.7c0,0.2,0,0.4,0.1,0.6
												c0.4,0.5,1,1.1,1.7,1.8c0-0.3,0-0.6-0.1-0.9C63.1,62.5,62.6,62,62.2,61.7z M62.4,62.9c0.1,0.6,0.3,1.2,0.6,1.9
												c0.1,0,0.2-0.1,0.3,0c0.2,0.1,0.4,0.4,0.3,0.6c0,0,0,0.1,0,0.1c0,0.1-0.1,0.2-0.2,0.2c0.3,0.4,0.6,0.9,0.9,1.3
												c-0.2-0.8-0.3-1.6-0.4-2.5C63.4,64,62.9,63.4,62.4,62.9z M64.6,67.7c-0.6-0.6-1-1.2-1.4-1.8c0,0-0.1,0-0.1,0
												c-0.2-0.1-0.4-0.4-0.3-0.6c0,0,0-0.1,0-0.1c0,0,0,0,0,0c-0.5-1-0.7-2-0.8-2.7c-0.5-0.6-0.8-1.1-1.1-1.4
												c0,0.3,0,0.7,0.1,1c0,0,0.1-0.1,0.1-0.1c0,0-0.1,0.1-0.1,0.1c0.1,0.5,0.2,1,0.3,1.4c0.1,0.1,0.1,0.2,0.1,0.4
												c0.9,3.1,2.8,5,3.4,5.6c0.1,0,0.1-0.1,0.2-0.1C64.9,68.8,64.7,68.3,64.6,67.7z M66,68.8L66,68.8c-0.1,0.1-0.1,0-0.2,0
												c0.1,0.1,0.1,0.3,0.2,0.4C65.9,69,65.9,68.9,66,68.8z M65.1,70.3C65.1,70.3,65.1,70.3,65.1,70.3
												C65.1,70.3,65.1,70.3,65.1,70.3C65.1,70.3,65.1,70.3,65.1,70.3z M64.7,69.7c-0.6-0.6-2.5-2.5-3.5-5.6
												c-0.3,0.2-0.8-0.1-0.7-0.6c0.1-0.2,0.3-0.3,0.5-0.3c-0.1-0.3-0.1-0.7-0.2-1c-0.1,0.1-0.1,0.1-0.2,0.2
												c-0.1,0.6-0.2,1.2-0.4,1.9C60,66,60,67.7,60.5,69.1c0,0,0.1,0,0.1,0c0.2,0.1,0.4,0.4,0.3,0.6c0,0,0,0.1,0,0.1
												c-0.1,0.3-0.3,0.4-0.6,0.3s-0.4-0.4-0.3-0.6c0,0,0-0.1,0-0.1c0-0.1,0.1-0.2,0.2-0.2c-0.3-0.9-0.4-2.1-0.4-3.2
												c-0.4,1.4-1,2.8-1.7,3.8c0.1,0.2,0.1,0.5-0.1,0.6c-0.2,0.2-0.5,0.1-0.7,0c0,0-0.1-0.1-0.1-0.1c-0.2-0.2-0.1-0.5,0-0.7
												s0.4-0.1,0.6,0c0.9-1.3,1.6-3.4,2.1-5.2c0-0.4,0.1-0.9,0.2-1.3C56.9,66.5,49.4,76,49.9,87c0.6,13.8,13.8,14.8,15.3,18.1
												c0,0,7-3.8,6.7-16.6c-0.2-9-4.2-12.2-6.4-18c0,0,0,0-0.1,0c-0.2,0-0.4,0-0.5-0.2c-0.1-0.1-0.2-0.2-0.2-0.4
												C64.7,69.8,64.7,69.8,64.7,69.7z M60.6,62.4c0,0,0.1-0.1,0.1-0.1c0-0.1,0-0.2-0.1-0.4C60.7,62.1,60.6,62.2,60.6,62.4z
												 M80.5,98.5c-0.5,0.1-2.3,0.6-3.1,1.6c-1.1,1.2-1.3,1.3-1.3,1.3s1.9,2,4.3,1.3c0,0,1.1-1.8,2.8-2
												c-0.4-0.3-0.8-0.6-1.2-0.9c-0.7,0.9-2.1,1.2-2.1,1.2c0.6-0.2,1.3-1.2,1.6-1.7C81,99,80.8,98.8,80.5,98.5z M89.1,102.7
												c-0.3,0.9-0.7,2.6-0.6,4c-0.2-1.1-0.4-2.7-0.1-4c-0.3,0-0.6,0-0.9-0.1c-0.6,0.8-2.3,3-1.9,4.9c0.4,2.3,3.1,6.2,3,7.7
												c0,0,2.1-2.1,3.4-2.9s1.8-2.9,1.7-3.3c0,0-3.7-3.3-3-6.6C90.1,102.6,89.6,102.7,89.1,102.7z M91.2,102.2
												c0.1,1.3,0.6,4.5,3,6.6c3.1,2.7,8.3,2,10.4,3.6c0,0-0.9-3.3-1.4-6.3s-2.2-6.8-6.1-8c-0.4-0.1-1-0.2-1.4-0.2
												c-0.4,0.9-1.1,1.7-2,2.6C92.9,101.4,92,101.9,91.2,102.2z M101.8,101.1c0,0,2-0.1,3.3-0.9c1.4-0.8,2.2-1.1,2.3-1.1
												c0.1,0-2.4-2.2-3.3-3.1c-0.9-0.9-3.6-3.8-7.8-1.8c0.1,0.5,0.1,1,0,1.5c0.9-0.1,3.1-0.3,4.9,1.1c0,0-2.9-1-5-0.4
												c-0.1,0.2-0.1,0.5-0.2,0.7C97,97.3,99.3,98,101.8,101.1z M96,93.2c0.4,0,1.6-0.2,2.7-1.2c1.5-1.3,0.2-3.6,0.8-4.6
												c0,0-3,0.5-3.9,1.4c-0.7,0.6-1,1.6-1.1,2.1c0.3,0.3,0.6,0.6,0.8,1c0.6-0.3,1.9-1,2.7-1.6c0,0-1.2,1.8-2.4,2.2
												C95.8,92.8,95.9,93,96,93.2z M85.1,107.7c0,0-0.4-3.8,1.5-5.3c-0.3-0.1-0.5-0.2-0.8-0.3c-0.8,0.4-3,1.8-3.7,3.2
												c0,0,0.8-2.1,2.7-3.6c-0.4-0.2-0.8-0.4-1.1-0.6c-0.9,0.3-2.7,1-3.5,2.9c-1,2.5-1,4.7-1.6,5.7
												C78.6,109.6,83.3,109.3,85.1,107.7z M44.9,97.9c-1,2.1-1.4,6.1-2.4,7.8c0,0,8.2-4.2,5.7-10.2c0,0-0.4,2.7-1.5,3.8
												c0,0,0.9-3.5,0.7-4.2C47.4,94.8,45.9,95.7,44.9,97.9z M59,58.6c-0.1-0.2-0.2-0.4-0.4-0.6c-0.1,0-0.1,0-0.1,0
												C58.6,58.2,58.8,58.4,59,58.6z M61,58.9c0.1,0,0.2,0,0.2,0c0.3-0.6,0.6-1.3,1.1-2.1c-0.2-0.1-0.4-0.3-0.3-0.5
												C61.6,57.1,61.2,58.1,61,58.9z M60.2,57.4c0-0.9,0.1-2,0.5-3.2c0-0.1,0-0.1,0.1-0.2c-0.2,0.1-0.6,0-0.7-0.3
												C59.8,55.1,59.9,56.4,60.2,57.4z M69.3,57.7C69.3,57.7,69.3,57.7,69.3,57.7C69.3,57.7,69.3,57.7,69.3,57.7
												C69.3,57.7,69.3,57.7,69.3,57.7z M9.3,101.6c0.6-1.3,1.7-1.3,6.3,0c4.6,1.3,12.1-0.1,19.1-4c6.9-3.9,9.8-11.3,9.8-11.3
												l3.5-8.1c-2.1,3.4-6.4,9.5-12.8,15.1c-4.7,4.1-14.1,7.3-23.9,5.1C1.5,96.1-2.1,90.8-0.4,90c1.7-0.8,3.9,2.3,9,5.2
												s16.1,3.7,23.7-0.8c4.1-2.4,6.9-5.6,8.6-7.9c1.4-1.9,3-4.8,3.3-5.4c0.7-1.3,1-2.1,1.1-2.5c-1,0.6-2.1,1.2-3.3,1.7
												l-0.5,0.9c-1.4,2.9-4.6,5.9-7.3,7.6c-12.3,7.9-25.4,5.6-31.6-2.5c-6.2-8.2-1.9-13.2,0.6-14.8c2.6-1.6,7.6-2.1,9.3,2.4
												c1.7,4.4-1.8,7.3-4.7,6.8s-3.7-4-2.1-5.1s2.6,0.3,2.6,0.3c-1.3-1.4-4.6,2-1.2,3.9c3.3,1.9,7.8-3.7,3.4-7.4
												c-4.4-3.7-12.1,2.1-10.1,8c2.1,6,8.1,13.3,21.2,12.3C33.7,91.7,40.1,82,41,80.6c-1.2,0.4-2.5,0.7-3.7,0.8
												c-1,1-2.2,2.1-3.4,2.5c0.2,0.5-0.1,1.2-0.6,1.5c-0.6,0.4-1.4,0.2-1.8-0.4c-0.4-0.6-0.2-1.4,0.4-1.8
												c0.6-0.4,1.4-0.2,1.8,0.4c0,0,0,0,0,0.1c0.6-0.5,1.6-1.3,2.5-2.2c0,0-0.1,0-0.1,0c-4.9,0-10.5-3.4-15.1-6.5l-0.6-0.4
												c-1.1-0.8-2.2-1.5-3.1-2.2l-0.4-0.3c-1.9-1.3-3.4-2.2-4.2-2.4c0,0,0.4-0.7,1.2-1.8l0.6-0.8c0.3-0.4,0.7-0.9,1.1-1.4
												l0.7-0.8c1.6-1.8,3.8-4,6.5-5.9l1.7-1.1c2.9-1.8,6.4-3.4,10.3-4.1h0c-1.2-2.1-2.2-4.1-2.9-5.9l-0.1-0.2
												c-4.4-11.9,0.4-19.9,0.4-19.9c2.5-0.8,4.9-1.1,7.2-1.1c0-0.9,0.1-1.9,0.4-2.9c1.7-5.6,9-9.5,12.2-14.3S52.8-4.3,49-4.4
												c-3.7-0.1-5.7,3.6-5.2,5.9c0.6,2.3,3,2.8,4.5,1.4c1.5-1.4,0.2-3.3,0.2-3.3c2.7,3.6-2.5,6-4.4,4.1
												c-1.8-1.8-1.4-5.6,0.1-7.2C44.6-3.7,45-4,45.6-4.3c0,0,0,0,0.1-0.1c0,0,0.1,0,0.1,0c0,0,0.1,0,0.1,0
												c0.2-0.1,0.3-0.1,0.5-0.2c2.5-0.8,10.2-2.2,18.4,7.4c6.1,7.1,6.7,15.7,6.4,21.4c8.3-1.5,16.7,0.5,18.3,0.4
												c0,0,0.6,17.3-1.2,24.2c-0.6,2.3-2.1,4-3.9,5.4c2.8-1.3,5.9-2.1,9-2.3c3.5-3.2,4.9-7.1,3.1-8.9c-3.2-3.3-5.9-0.5-5.9-0.5
												c3.3-3.8,6.9-0.4,7.1,2.2c0.1,2.7-1.3,5.2-3.3,7.1c1.5,0,2.9,0.1,4.4,0.4c12.1,2.2,16.6,11.2,14,16.2
												c-2.6,5-6.2,5.8-9.4,4.6c-3.2-1.3-5.4-6.6-1.6-9c3.8-2.5,7.2,1.5,5.9,3.5c-1.3,2-2.9,0.9-2.9,0.9
												c0.6,0.1,2.2-0.3,2.4-1.6c0.2-1.3-1.8-3.8-4.4-2.4c-2.6,1.4-2.6,5-0.9,6.5s6.7,3.7,9.9-2.5c3.1-6.1-4.2-16.1-18.3-15.8
												c-2.4,2.2-5.4,3.8-7.3,4.7c0.6,0.1,1.1,0.3,1.7,0.5c1.3,0.4,2.5,1,3.6,1.7c0,0,0.7,0.5,0.8,0.6
												c8.1,6.1,9.7,19.7,12.8,21.8c0,0-9.6,3.3-19.9,1.9c0,0-2.8-0.5-3.9-0.8c-3.2-0.8-6.4-2.2-9.3-4.4c0,0,16.9,7.5,29.9,2.6
												c0,0-3.3-15.5-12.6-20.8c-8.5-4.9-22.8-0.3-25.1,0.5c1.8,0.1,3.9,0.1,5.9-0.7c0-0.1,0-0.2,0-0.3c0.1-0.2,0.4-0.4,0.6-0.3
												c0.1,0,0.1,0,0.2,0c0.3,0.1,0.4,0.3,0.3,0.6c-0.1,0.2-0.4,0.4-0.6,0.3c-0.1,0-0.1,0-0.2-0.1c-0.1,0-0.1,0-0.1-0.1l0,0
												c-2,0.8-4.3,0.9-6.2,0.7c2.4,0.6,5.7,1.2,8.4,1.1l0,0.3c-2.8,0.1-6.2-0.5-8.6-1.1c0,0.1,0,0.2,0,0.3
												c1.4,0.6,3.2,1.2,4.8,1.6c0.2-0.5,1.1-0.3,0.9,0.3c-0.1,0.5-0.8,0.4-0.9,0c-1.6-0.3-3.3-1-4.8-1.5c0,0.2,0.1,0.5,0.1,0.9
												c0.1,0.1,0.2,0.2,0.4,0.3c0.3-0.4,1-0.1,0.9,0.4c0,0.1,0,0.1-0.1,0.1c1,0.6,2.2,1.3,3.7,2c0.3-0.2,0.9,0,0.7,0.5
												c-0.2,0.6-1.1,0.3-0.9-0.3c-1.6-0.7-2.8-1.4-3.9-2.1c-0.2,0-0.5-0.1-0.6-0.4c-0.1-0.1-0.1-0.1-0.2-0.2
												c0.1,0.4,0.1,0.7,0.2,1.1c0.4,0.3,0.8,0.7,1.3,1.1c0.1-0.2,0.4-0.4,0.6-0.3c0,0,0.1,0,0.1,0c0.3,0.1,0.4,0.3,0.3,0.6
												c0,0.1-0.1,0.2-0.2,0.2c0.2,0.2,0.5,0.3,0.7,0.5c0,0,0,0,0,0c0.2-0.6,1.1-0.3,0.9,0.3c-0.1,0.4-0.6,0.4-0.8,0.2
												c-0.5-0.3-0.9-0.6-1.3-0.8c0,0,0,0,0,0c-0.1,0-0.2-0.1-0.2-0.2c-0.5-0.3-0.9-0.6-1.3-1c0.2,0.9,0.5,2,0.9,3.1
												c0.2,0.1,0.3,0.3,0.5,0.4l0,0c0,0,0.1-0.1,0.1-0.1c0,0,0.1,0,0.1-0.1c0.2-0.1,0.5,0,0.6,0.2c0.1,0.2,0,0.5-0.2,0.6
												c0,0-0.1,0-0.1,0.1c-0.2,0.1-0.5,0-0.6-0.2c0.9,2.4,2.3,5.1,4.3,7.8c0.3,0.4,0.6,0.9,0.9,1.3c0,0,0.1,0.1,0.2,0.4
												c3.2,2.1,11.9,7.4,19.8,7.3c0,0-4.3,2.4-15.5-3.9c0.1,0.1,0.1,0.1,0.2,0.2c2.2,2.4,1.2,4.9,1.7,8
												c0.5,3.1,2.1,6.7,5.3,9.2c5.2,3.9,12,2,12.7-3.1s-3.7-7.3-5.9-6.2c-2.3,1.1-2.2,4-0.5,5c1.7,1.1,3.2,0.1,3.2,0.1
												c-2.1,1.5-3.9,1-4.9-1.2c-1.1-2.2,1.1-6.6,5.2-4.6c0.5,0.2,0.9,0.5,1.4,0.8c0,0-0.1-1.1,1.4-2.2s4-1.1,4.9-1.7
												c0,0,0.3,4.9-1.1,6.5c0,0,2.1-0.3,4.4,1.4c2.3,1.7,3.5,4.2,5.5,5.1c0,0-1.5,0-2.9,1.2s-3.8,1.3-3.8,1.3s1.2,2,1.7,5.2
												c0.5,3.2,1.7,6.2,1.7,6.2s-3.6-1.3-6.4-1.7c-2.8-0.4-4.9-1.9-4.9-2c0,0,0.3,1.6-2,3s-4.1,4.1-4.1,4.1s-0.5-3-1.5-4.7
												c-1.1-1.7-1.4-2.9-1.6-3.4c0,0-1.9,0.9-3.9,1.2c-2.1,0.3-3.5,1-3.5,1s0.9-2.3,1.3-4s0.4-3,0.8-3.4c0,0-2.5,0.4-4.4-1.9
												c0,0,0.9-0.7,1.6-1.5c0.6-0.8,1.6-2,2.9-1.8c-0.2-0.2-0.3-0.4-0.5-0.6c-1.6-1.7-2.3-3.7-2.6-5.5c0,0,0,0,0,0c0,0,0,0,0,0
												c-0.6-3,0.7-7.5-3.4-11.1c-0.5-0.3-1.1-0.7-1.7-1.1c0.6,1.5,1.6,3.9,1.9,5.7c0.1,0.4,0.1,0.7,0.1,1.1
												c0.1,0.7,0.1,1.6,0.1,2.6c-0.1,6.7-3.1,13.5-9.4,17.4c0,0-0.2-2.1-6.8-4.1c-3.1-1-7.4-5.2-8.8-11.6
												c-0.2,1.5-0.5,2.8-0.5,2.8s2.9,1.7,0.4,6.7s-8.3,6.7-8.3,6.7c3.4-3.3,2.8-7.9,3.8-9.9c1-2,3.5-3.7,3.5-3.7
												c0.9-2.1,0.6-6.1,0.6-6.1h0c-0.4-6.7,2.4-15.1,11.5-24.4c0.1-0.9,0.3-1.7,0.4-2.1L56.8,64l0,0l0,0.1l-0.4-0.1l2.8-2.4
												c-1.6,0.9-4.1,2-6.1,2c-0.1,0.3-0.3,0.4-0.6,0.3c-0.2-0.1-0.4-0.4-0.3-0.6c0,0,0-0.1,0-0.1c0.1-0.3,0.3-0.4,0.6-0.3
												c0.2,0,0.3,0.2,0.3,0.4c2.5-0.1,5.8-1.9,7-2.7c-0.9-0.1-2.5,0-3.8,0c0.2,0.1,0.4,0.3,0.3,0.6c-0.2,0.6-1.1,0.3-0.9-0.3
												c0-0.1,0.1-0.2,0.2-0.3c-0.4,0-0.8,0-1.1,0c0,0.2-0.2,0.3-0.3,0.3c-0.2,0.1-0.5-0.1-0.6-0.4c0-0.1,0-0.1,0-0.2
												c0-0.3,0.1-0.5,0.4-0.6c0.2-0.1,0.5,0.1,0.6,0.4c0,0,0,0.1,0,0.1c0.9,0,2.8-0.1,4.3-0.1c-1.6-0.4-4.1-1.4-5.2-3.3
												c-0.2-0.1-0.3-0.2-0.3-0.3C53.6,56.3,53.7,56,54,56c0.1,0,0.1,0,0.2,0c0.3,0,0.5,0.1,0.6,0.4c0.1,0.2-0.1,0.5-0.4,0.6
												c0,0,0,0-0.1,0c1.3,2.1,4.2,2.9,5.7,3.2c-1.4-0.8-3.3-1.8-3.4-1.8l0.1-0.1c-0.3,0-0.6-0.2-0.5-0.6
												c0.2-0.6,1.1-0.3,0.9,0.3c0,0.1-0.1,0.2-0.2,0.2c0.4,0.2,1.3,0.7,2.2,1.2c-3.8-3.6-4.9-8.3-5.2-9.5c0,0-0.1,0-0.1,0
												c0,0-0.1,0-0.1,0c-0.3-0.1-0.4-0.3-0.3-0.6c0.1-0.2,0.4-0.4,0.6-0.3c0,0,0.1,0,0.1,0c0.3,0.1,0.4,0.3,0.3,0.6
												c0,0.1-0.1,0.2-0.2,0.2c0.2,1,1,4.6,3.7,7.8c0-0.1,0.1-0.2,0.2-0.3c-0.7-1.4-1-2.7-1.2-3.4c-0.1-0.1-0.2-0.3-0.1-0.5
												c0,0,0,0,0,0c0,0,0,0,0,0l0,0c0.1-0.2,0.3-0.4,0.6-0.3c0.2,0.1,0.4,0.4,0.3,0.6c0,0,0,0.1,0,0.1
												c-0.1,0.2-0.2,0.3-0.4,0.3c0.2,0.7,0.5,1.9,1.1,3.1c0.2-0.1,0.4,0,0.5,0.2s0,0.4-0.1,0.6c0.3,0.5,0.6,1,1,1.4
												c-1.7-3.4-0.8-7.7-0.1-9.9c0.2-0.6,0.4-1,0.4-1.3c-0.1-0.1-0.2-0.3-0.1-0.5c0.2-0.6,1.1-0.3,0.9,0.3
												c-0.1,0.2-0.3,0.3-0.5,0.3c-0.4,1.1-2.6,7.1-0.2,11.3c-0.1-0.3-0.1-0.6-0.1-1c-0.5-1.3-1-3.4-0.3-5.7
												c0.4-1.1,1-2.3,2.1-3.5c-0.2-0.2-0.2-0.4-0.1-0.6c0.1-0.2,0.5-0.3,0.7-0.1c0.1,0.1,0.1,0.1,0.2,0.2
												c0.2,0.2,0.3,0.4,0.1,0.7c-0.1,0.2-0.4,0.3-0.6,0.1c-1.2,1.3-1.8,2.6-2.2,3.8c0,0,0,0,0.1-0.1c0,0,0,0,0,0
												c0.1-0.2,0.4-0.4,0.6-0.3c0,0,0.1,0,0.1,0c0.1,0,0.2,0.1,0.2,0.2c0.4-1,1.1-2.1,2-3.2c-0.1-0.1-0.1-0.2,0-0.4
												c0.2-0.6,1.1-0.3,0.9,0.3c-0.1,0.3-0.4,0.4-0.6,0.3c-2.8,3.2-3,6.4-2.8,8.3c0,0.1,0.1,0.2,0.1,0.2
												c-0.5-4,2.9-7.6,3.5-8.2c0-0.1,0-0.2,0-0.3c0.2-0.6,1.1-0.3,0.9,0.3c-0.1,0.3-0.5,0.4-0.7,0.2c-0.6,0.5-3.6,3.7-3.5,7.4
												c0,0,0-0.1,0-0.1c0.6-2,2-4,3-5.3c0-0.1,0-0.1,0-0.2c0.2-0.6,1.1-0.3,0.9,0.3c-0.1,0.4-0.5,0.4-0.8,0.2
												c-0.6,0.8-1.3,1.8-1.9,2.9c0.2-0.2,0.4-0.2,0.6,0c0.8-1.3,1.8-2.7,3-3.7c0-0.1,0-0.1,0-0.2c0.1-0.3,0.4-0.4,0.6-0.3
												c0.1-0.1,0.2-0.1,0.3-0.2c0,0,0-0.1,0-0.1c0,0,0-0.1,0-0.1c0.1-0.3,0.3-0.4,0.6-0.3s0.4,0.4,0.3,0.6c0,0,0,0.1,0,0.1
												c-0.1,0.3-0.3,0.4-0.6,0.3c-0.1,0-0.2-0.1-0.2-0.2c0,0-0.1,0-0.1,0.1c0,0.1,0.1,0.2,0,0.3c-0.1,0.4-0.5,0.4-0.8,0.2
												c-1.2,1-2.2,2.4-3,3.7c0,0.1,0,0.1,0,0.2c0,0.2-0.1,0.2-0.3,0.3c-0.2,0.4-0.5,0.8-0.6,1.2c2.6-3.2,6.7-4.6,6.8-4.6
												l0.1,0.3c-0.1,0-4.6,1.6-7.1,5.1c2.1-1.7,6.3-3.2,6.5-3.2l0.1,0.3c0,0-2.5,0.9-4.6,2c0.2,0.1,0.3,0.3,0.2,0.5
												c-0.2,0.5-0.9,0.3-0.9-0.1c-0.6,0.3-1.1,0.7-1.5,1.1c0,0.1,0,0.1,0,0.2c-0.1,0.2-0.2,0.3-0.4,0.3c0,0,0,0,0,0s0,0,0,0
												l0.2,0.5c1.3,0.1,3.4-0.6,5-1.2c0-0.1,0-0.1,0-0.2c0.1-0.4,0.6-0.4,0.8-0.2c0.6-0.2,1.1-0.5,1.4-0.6
												c0-0.2,0.1-0.4,0.3-0.5c0.1,0,0.1-0.1,0.2-0.1c0,0,0.1,0,0.1,0c0.1,0,0.1,0,0.2,0c0.3-0.1,0.5-0.1,0.7,0.2
												c0.1,0.1,0.1,0.2,0.1,0.3c2.5-0.8,5.5-1.4,8.9-1.5c2.4-1.4,5.7-4.1,7.1-8.8c2.3-7.9,0-17.7,2.2-22.2
												c0,0-18.8-2.8-26.4,5.4c-7.5,8.1-4.3,21.9-4.3,21.9s-4.3-11-0.6-19.3c0,0,0,0,0,0l-0.4-0.2c0,0.1,0,0.2,0,0.2
												c0-0.1-0.1-0.2-0.1-0.2c0,0,0,0,0,0c-12.4-7.4-24.2-4.4-24.2-4.4c-3,5.2-1.4,12.7,0.5,18.2c0,0.1,0.2,0.5,0.2,0.6
												c1,2.7,2,4.9,2.6,6c4-0.5,8.5-0.2,13.4,1.5c-4.8-1.5-21-4.7-34.8,14c0,0,10,8.5,18.8,11s17.5-6,19.3-7.6
												c0,0-0.7,0.8-1.9,2c-0.2,0.4-0.4,1-0.8,1.8l-0.4,2.2c-0.8,5.1-2,9.2-3.4,12.6c-0.4,1.3-1.1,2.7-2.1,4.2
												c-0.9,1.6-1.9,3-2.8,4.1c-1,1.3-2.3,2.5-3.6,3.5c-2.9,2.3-6.7,3.8-7.4,2.8c-0.1-0.1-0.1-0.1-0.1-0.2
												c-0.1-0.1-0.1-0.2-0.1-0.3c-0.4-1.3,1.7-2,4.5-3.3c0.1,0,0.1-0.1,0.2-0.1c0.1,0,0.1-0.1,0.2-0.1c0.1,0,0.1-0.1,0.2-0.1
												c1.6-0.7,3.4-1.7,5.1-3c2-1.6,3.4-3.6,4.4-5.5c0.1-0.2,0.2-0.4,0.3-0.6c0,0,0,0,0-0.1c0.5-1.1,0.9-2.4,1.3-3.9
												c0.1-0.4,0.1-0.7,0.1-0.7l0.1,0c0.6-2.1,1-4.4,1.4-6.4c-0.7,1.4-1.4,3.1-2.3,5c-4.6,10-12,13.3-20.6,16.5
												S8.7,103,9.3,101.6z M15.7,90.1c0.2,0.3,0.6,0.4,1,0.2s0.4-0.6,0.2-1s-0.6-0.4-1-0.2C15.6,89.3,15.5,89.7,15.7,90.1z
												 M20.5,89.4c0.2,0.4,0.7,0.5,1.1,0.2c0.4-0.2,0.5-0.7,0.2-1.1c-0.2-0.4-0.7-0.5-1.1-0.2C20.4,88.5,20.3,89,20.5,89.4z
												 M24.2,88.4c0.3,0.4,0.8,0.5,1.2,0.3c0.4-0.3,0.5-0.8,0.3-1.2s-0.8-0.5-1.2-0.3C24,87.5,23.9,88,24.2,88.4z M27.8,86.8
												c0.3,0.5,1,0.7,1.6,0.3c0.5-0.3,0.7-1,0.3-1.6s-1-0.7-1.6-0.3C27.6,85.6,27.5,86.3,27.8,86.8z M51.9,40.7
												c0,0,0.8-6.2-2.9-7.4c-1.2-0.4-2.1-0.3-2.8-0.1c0.2,0.2,0.4,0.5,0.6,0.8C48.8,33.6,51.4,34.5,51.9,40.7z M47.8,35.1
												C47.8,35.1,47.8,35.1,47.8,35.1c0.2,0.4,0.5,0.9,0.8,1.3c0,0,0.1,0.1,0.2,0.3C48.9,36,48.6,35.3,47.8,35.1z M64,16.7
												c0,0.2,0.2,0.4,0.5,0.4s0.4-0.2,0.4-0.5c0-0.2-0.2-0.4-0.5-0.4S64,16.5,64,16.7z M64.3,19.4c0,0.3,0.3,0.5,0.5,0.5
												c0.3,0,0.5-0.3,0.5-0.6c0-0.3-0.3-0.5-0.6-0.5S64.2,19.1,64.3,19.4z M64,22.3c0,0.4,0.3,0.7,0.7,0.6
												c0.4,0,0.7-0.3,0.6-0.7c0-0.4-0.3-0.7-0.7-0.6C64.3,21.6,64,21.9,64,22.3z M63.2,25.3c0,0.5,0.4,0.9,0.9,0.9
												c0.5,0,0.9-0.4,0.9-0.9s-0.4-0.9-0.9-0.9C63.6,24.4,63.2,24.8,63.2,25.3z M86,98.7c-0.1,0.1-0.1,0.3,0,0.4
												c0.1,0.1,0.3,0.1,0.4,0c0.1-0.1,0.1-0.3,0-0.4C86.3,98.6,86.1,98.6,86,98.7z M101,109.2c0.1-0.1,0.2-0.3,0-0.4
												c-0.1-0.1-0.3-0.1-0.4,0c-0.1,0.1-0.1,0.3,0,0.4C100.7,109.3,100.9,109.3,101,109.2z M84.2,97.4
												c-0.1-0.2-0.4-0.2-0.6-0.1c-0.2,0.1-0.2,0.4-0.1,0.6c0.1,0.2,0.4,0.2,0.6,0.1C84.3,97.9,84.4,97.6,84.2,97.4z M100.1,108
												c0.2-0.1,0.2-0.4,0.1-0.6c-0.1-0.2-0.4-0.2-0.6-0.1c-0.2,0.1-0.2,0.4-0.1,0.6S99.9,108.2,100.1,108z M82.4,96.5
												c0.3-0.2,0.3-0.6,0.1-0.9s-0.6-0.3-0.9-0.1s-0.3,0.6-0.1,0.9S82.1,96.7,82.4,96.5z M99.1,106.9c0.3-0.2,0.3-0.6,0.1-0.9
												c-0.2-0.3-0.6-0.3-0.9-0.1s-0.3,0.6-0.1,0.9S98.8,107.1,99.1,106.9z M97.5,105.3c2-1.6-3-4-3-4S95.6,106.9,97.5,105.3z
												 M88.8,108.2c0,0-0.2-0.6-0.4-1.5C88.5,107.3,88.6,107.8,88.8,108.2z M85.4,115.7c-0.1,0.2-0.1,0.3-0.1,0.3
												C85.3,116,85.3,115.9,85.4,115.7z M71.5,50.1c-0.3,0.2-0.4,0.3-0.4,0.3C71.2,50.3,71.4,50.2,71.5,50.1z M80.2,43
												c0.2-0.2-6.3,5.6-8.7,7.1C73,49.2,77.8,46.1,80.2,43z M69.8,43c0,0,8.6-8,10.3-10.7C80.3,32.1,71.5,40.6,69.8,43z
												 M63.5,44.2c1-8.7,10.1-14.3,10.1-14.3C62.4,34.6,63.5,44.2,63.5,44.2z M35.3,32.8c1.2,4.2,13.4,12.6,13.4,12.6
												C46.7,42.8,35.2,32.4,35.3,32.8z M53.9,45.7c0,0-4-8.3-9-11.8C44.2,33.4,50.2,40,53.9,45.7z M38.3,59.8
												c6.4-0.7,13.9-0.6,13.8-0.6C47.7,58.6,42.4,59.1,38.3,59.8z M31.2,61.3c0,0,3-0.8,7.1-1.5C35.4,60.1,32.7,60.6,31.2,61.3
												z M50.2,63.8c0.3-0.1-20.8,2.3-25.2,4.6C25,68.4,45.2,65.7,50.2,63.8z M52.2,68.6C44.1,74.4,33.4,75,33.4,75
												C42.4,77.5,52.5,68.4,52.2,68.6z M53.7,86.9c1-4.7,5.8-14.6,5.5-14.3C56.1,75,54.1,84.4,53.7,86.9z M53.7,86.9
												c0,0.2-0.1,0.4-0.1,0.6C53.6,87.5,53.6,87.3,53.7,86.9z M62.7,96c0.3,1.3,0.6,2.3,0.9,3C63.6,98.9,63.2,97.7,62.7,96z
												 M61,82.7c-0.8,3.1,0.7,9.5,1.8,13.3C61.7,90.8,61.1,82.1,61,82.7z M62.6,73.6c3.5,7.4,4.4,20.2,4.4,20.2
												C68.7,84.6,62.6,73.6,62.6,73.6z M74.6,67.7C79,71.5,95,77.5,95,77.5C91,74.9,74.2,67.4,74.6,67.7z M76.6,63.1
												c10.7,3.5,20.7,12,20.7,12C91,66,76.2,62.9,76.6,63.1z M58.8,63.7c-0.1-0.2-0.4-0.3-0.6-0.2c0,0-0.1,0-0.1,0.1
												c-0.2,0.1-0.3,0.4-0.2,0.6c0.1,0.2,0.4,0.3,0.6,0.2c0,0,0.1,0,0.1-0.1C58.8,64.3,58.9,64,58.8,63.7z M63,72.1
												c0,0.1,0,0.1,0,0.2c-0.1,0.2,0.1,0.5,0.3,0.6c0.2,0.1,0.5-0.1,0.6-0.3c0-0.1,0-0.1,0-0.2c0.1-0.2-0.1-0.5-0.3-0.6
												S63.1,71.9,63,72.1z M71.8,67.3C71.8,67.3,71.8,67.3,71.8,67.3c-0.3-0.1-0.6,0-0.7,0.3c-0.1,0.2,0.1,0.5,0.3,0.6
												c0,0,0.1,0,0.1,0c0.2,0.1,0.5-0.1,0.6-0.3S72.1,67.4,71.8,67.3z M58.4,49.9C58.3,49.9,58.3,49.8,58.4,49.9
												c-0.2-0.3-0.5-0.4-0.7-0.3c-0.2,0.1-0.3,0.4-0.2,0.6c0,0,0,0,0,0.1c0.1,0.2,0.4,0.3,0.6,0.2
												C58.4,50.4,58.5,50.1,58.4,49.9z M53.4,68.4c-0.1,0.2,0.1,0.5,0.3,0.6c0.2,0.1,0.5-0.1,0.6-0.3c0-0.1,0-0.1,0-0.2
												c0.1-0.2-0.1-0.5-0.3-0.6s-0.5,0.1-0.6,0.3C53.4,68.3,53.4,68.3,53.4,68.4z M54.5,53.1c0.1-0.2-0.1-0.5-0.3-0.6
												c-0.2-0.1-0.5,0.1-0.6,0.3c0,0.1,0,0.1,0,0.2c-0.1,0.2,0.1,0.5,0.3,0.6c0.2,0.1,0.5-0.1,0.6-0.3
												C54.4,53.2,54.5,53.1,54.5,53.1z M65.4,47.3c0,0-0.1,0.1-0.1,0.1c-0.2,0.2-0.2,0.5,0,0.7c0.2,0.2,0.5,0.2,0.7,0
												c0,0,0.1-0.1,0.1-0.1c0.2-0.2,0.2-0.5,0-0.7C65.9,47.2,65.5,47.2,65.4,47.3z M75.4,61.1C75.3,61.1,75.3,61.1,75.4,61.1
												c-0.3-0.1-0.6,0-0.7,0.3s0.1,0.5,0.3,0.6c0,0,0.1,0,0.1,0c0.2,0.1,0.5-0.1,0.6-0.3C75.8,61.4,75.6,61.1,75.4,61.1z
												 M69.8,50.5C69.8,50.5,69.9,50.5,69.8,50.5c0.3,0.1,0.6,0,0.7-0.3c0.1-0.2-0.1-0.5-0.3-0.6c0,0-0.1,0-0.1,0
												c-0.2-0.1-0.5,0.1-0.6,0.3C69.4,50.1,69.5,50.4,69.8,50.5z M72.4,55C72.5,55,72.5,55,72.4,55c0.3,0.1,0.6,0,0.7-0.3
												c0.1-0.2-0.1-0.5-0.3-0.6c0,0-0.1,0-0.1,0c-0.2-0.1-0.5,0.1-0.6,0.3S72.2,54.9,72.4,55z M60.9,71.3c0,0.1,0,0.1,0,0.2
												c-0.1,0.2,0.1,0.5,0.3,0.6s0.5-0.1,0.6-0.3c0-0.1,0-0.1,0-0.2c0.1-0.2-0.1-0.5-0.3-0.6C61.2,70.9,61,71,60.9,71.3z
												 M67.9,70c-0.2,0.6,0.7,0.9,0.9,0.3C69,69.7,68.1,69.5,67.9,70z M73,64.7c-0.1-0.2-0.4-0.3-0.6-0.2c0,0-0.1,0-0.1,0.1
												c-0.2,0.1-0.3,0.4-0.2,0.6c0.1,0.2,0.4,0.3,0.6,0.2c0,0,0.1,0,0.1-0.1C73,65.2,73.1,64.9,73,64.7z M56.8,64.6
												c0.1-0.2-0.1-0.5-0.3-0.6S56,64,55.9,64.3c0,0,0,0.1,0,0.1c-0.1,0.2,0.1,0.5,0.3,0.6C56.4,65,56.7,64.9,56.8,64.6
												C56.8,64.6,56.8,64.6,56.8,64.6z M60.6,66.8c-0.2,0.6,0.7,0.9,0.9,0.3C61.7,66.5,60.8,66.2,60.6,66.8z M72.7,62.3
												c-0.2,0.6,0.7,0.9,0.9,0.3C73.8,62,72.9,61.8,72.7,62.3z M69.5,55.4c0.2-0.6-0.7-0.9-0.9-0.3
												C68.4,55.7,69.4,56,69.5,55.4z M68.9,53.2c-0.2,0.6,0.7,0.9,0.9,0.3C70,52.9,69.1,52.6,68.9,53.2z M49.3,55.1
												c0.5,0.2,0.9,0.3,1.4,0.5C50.7,55.6,50.2,55.4,49.3,55.1z M61.4,61.7c-0.1,0.1-0.1,0.1-0.2,0.2
												C61.3,61.7,61.4,61.7,61.4,61.7"/>
										</g>
									</g>
								</g>
							</g>
						</g>
					</g>
				</g>
			</g>
		</g>
	</g>
	<g>
		<defs>
			<rect id="SVGID_00000104677840432903386960000016025868568198741382_" x="0.9" y="160" width="104.1" height="102"/>
		</defs>
		<clipPath id="SVGID_00000124858477087078555760000007125057182911907714_">
			<use xlink:href="#SVGID_00000104677840432903386960000016025868568198741382_"  style="overflow:visible;"/>
		</clipPath>
		<g style="clip-path:url(#SVGID_00000124858477087078555760000007125057182911907714_);">
			<g>
				<defs>
					
						<rect id="SVGID_00000044153473625113350060000015067499686337886355_" x="0.6" y="161.7" transform="matrix(0.7695 -0.6386 0.6386 0.7695 -124.3561 82.8827)" width="104.1" height="104.1"/>
				</defs>
				<clipPath id="SVGID_00000015324386949385262610000016683986188736259228_">
					<use xlink:href="#SVGID_00000044153473625113350060000015067499686337886355_"  style="overflow:visible;"/>
				</clipPath>
				<g style="clip-path:url(#SVGID_00000015324386949385262610000016683986188736259228_);">
					<g>
						<defs>
							
								<rect id="SVGID_00000103222897866071261090000016710471725468477843_" x="0.6" y="161.7" transform="matrix(0.7695 -0.6386 0.6386 0.7695 -124.3561 82.8827)" width="104.1" height="104.1"/>
						</defs>
						<clipPath id="SVGID_00000040547719537719112540000009438028384718028169_">
							<use xlink:href="#SVGID_00000103222897866071261090000016710471725468477843_"  style="overflow:visible;"/>
						</clipPath>
						<g style="clip-path:url(#SVGID_00000040547719537719112540000009438028384718028169_);">
							<g>
								<defs>
									
										<rect id="SVGID_00000137832319524898672480000014912124688756354182_" x="0.6" y="161.7" transform="matrix(0.7695 -0.6386 0.6386 0.7695 -124.3701 82.906)" width="104.1" height="104"/>
								</defs>
								<clipPath id="SVGID_00000050640218619045068410000014363602611589397889_">
									<use xlink:href="#SVGID_00000137832319524898672480000014912124688756354182_"  style="overflow:visible;"/>
								</clipPath>
								<g style="clip-path:url(#SVGID_00000050640218619045068410000014363602611589397889_);">
									<g>
										<defs>
											
												<rect id="SVGID_00000134945259566849955860000014293680259440707738_" x="0.6" y="161.8" transform="matrix(0.7695 -0.6386 0.6386 0.7695 -124.3542 82.8788)" width="104.1" height="103.9"/>
										</defs>
										<clipPath id="SVGID_00000174584602802696276130000011751154048118097572_">
											<use xlink:href="#SVGID_00000134945259566849955860000014293680259440707738_"  style="overflow:visible;"/>
										</clipPath>
										<g style="clip-path:url(#SVGID_00000174584602802696276130000011751154048118097572_);">
											<path class="st10" d="M58.1,246.5c0.3,0.3,0.8,0.4,1.1,0.1c0.3-0.3,0.4-0.8,0.1-1.1s-0.8-0.4-1.1-0.1
												C57.9,245.6,57.8,246.1,58.1,246.5z M64.5,247.8c0.3,0.3,0.8,0.4,1.1,0.1c0.3-0.3,0.4-0.8,0.1-1.1
												c-0.3-0.3-0.8-0.4-1.1-0.1C64.3,246.9,64.2,247.4,64.5,247.8z M74.1,239.3c-0.3-0.3-0.8-0.4-1.1-0.1
												c-0.3,0.3-0.4,0.8-0.1,1.2c0.3,0.3,0.8,0.4,1.1,0.1C74.3,240.2,74.4,239.6,74.1,239.3z M95,216.9
												c0.3,0.3,0.8,0.4,1.2,0.1c0.3-0.3,0.4-0.8,0.1-1.1c-0.3-0.3-0.8-0.4-1.1-0.1C94.7,216.1,94.7,216.6,95,216.9z
												 M81.1,230.7c-0.3-0.3-0.8-0.4-1.1-0.1c-0.3,0.3-0.4,0.8-0.1,1.2s0.8,0.4,1.1,0.1C81.3,231.5,81.4,231,81.1,230.7z
												 M82.2,237.2c-0.3-0.3-0.8-0.4-1.1-0.1c-0.3,0.3-0.4,0.8-0.1,1.1c0.3,0.3,0.8,0.4,1.1,0.1
												C82.4,238,82.4,237.5,82.2,237.2z M37.9,266.1c-0.7,0.3-1.4,0.4-1.9-0.2c-0.5-0.6-0.4-1.4,0.2-1.9s1.4-0.4,1.9,0.2
												c0,0-0.8-1.6-2.4-0.5c-0.9,0.6-0.3,1.8,0.1,2.4c0.4,0.5,2.2,2.4,5.2-0.9c3.8-4,7.3-14.1,3.6-44.7
												C44.9,222.5,49.2,260,37.9,266.1z M22.7,238.6l-1.4,1.2c3.3,4,13.5-2.7,23.3-19.4C27.8,245.4,22.7,238.6,22.7,238.6z
												 M44.6,220.4C44.6,220.4,44.6,220.5,44.6,220.4C44.6,220.5,44.6,220.4,44.6,220.4C44.6,220.4,44.6,220.4,44.6,220.4
												c0,0,0,0.2,0,0.6C44.6,220.7,44.6,220.5,44.6,220.4z M38.6,240.5c-5.5-0.6,1.7-13.5,1.7-13.5s-8.8,13.3-2.4,15
												c6,1.6,6.6-17.3,6.7-21C44.5,224.5,43.4,241,38.6,240.5z M92.8,181.9c-0.1-0.9-0.1-1.4-0.1-1.4
												C92.8,181,92.8,181.4,92.8,181.9z M101.3,240.1c-12.3-12.7-30.9-20.3-35-21.9c-0.8,0.5-1.6,1-2.4,1.3
												c8.9,4.5,12.8,9.2,12.8,9.2c-4.8-3.9-12-7.3-14.5-8.4c-1.6,0.6-3.2,1.1-4.7,1.3c13.7,10,22.1,14.6,22.1,14.6
												c-8.5-2.7-23-13.3-24.7-14.2c-1.6,0.1-3.1,0-4.5-0.1c11.7,13,17.9,16.8,17.9,16.8c-9.1-3.3-19.9-16.5-20.5-17.2
												c-1.4-0.3-2.5-0.7-3-0.9l0.9,0.4c0,0,1.9,1.3,6.7,7.3c4.7,5.8,11.2,11,19.6,15C88.4,251,101.3,240.1,101.3,240.1z
												 M81.6,214.4c3.6-0.4,6.8,0.4,6.8,0.4c-3-0.3-6.1,0.4-8,1c-1.9,2.1-3.5,3.5-4.3,4.3c6.1-1.6,15.9-2.8,15.9-2.8
												c-6.3,2.7-11.8,4-14.2,4.5c1,0.6,2.1,1.2,3.3,1.8c5-0.7,8.9-3,8.9-3c-2.9,2.5-5.6,3.6-7.1,4c1.3,0.8,2.7,1.7,4.1,2.7
												l-0.1-0.1c11.9-3,17.6-13.5,17.6-13.5c-7.2-4.5-16.4-4.1-19.3-3.9C83.9,211.5,82.8,213,81.6,214.4z M44.6,220.4
												C44.6,220.4,44.6,220.4,44.6,220.4C44.6,220.4,44.6,220.4,44.6,220.4L44.6,220.4L44.6,220.4z M44.5,220
												c-0.1-0.5-0.3-1.6-0.3-3.1c-0.6-0.7-11.6-13.8-13.2-23.3c0,0,2.6,6.9,13.2,20.7c0.1-1.3,0.3-2.8,0.7-4.4
												c-0.7-1.9-8.4-18.1-9.4-26.9c0,0,3,9.1,10.2,24.4c0.5-1.4,1.2-2.9,2.2-4.3c-0.6-2.7-2.6-10.4-5.6-15.8
												c0,0,3.9,4.7,6.6,14.3c0.5-0.7,1.1-1.4,1.8-2.1c-0.8-4.4-4.9-24-15.1-38.5c0,0-13.1,10.7-8.5,28.1
												c2.4,9,6.3,16.4,11.2,22.1c5,5.8,5.9,7.9,5.9,7.9L44.5,220z M45.7,177.8l-0.1-0.2c0.7,1.6,1.3,3.1,1.9,4.5
												c0.7-1.4,2.3-3.9,5.3-6.3c0,0-3,3.3-4.6,8.2c0.4,1.2,0.8,2.4,1.2,3.5c1-2.3,3.3-7.5,7.1-13.2c0,0-3,9.5-5.7,15.2
												c0.9-0.7,2.6-2,5-3.5c0.9-1.8,2.2-4.7,2.4-7.7c0,0,0.3,3.3-0.8,6.8c1.5-0.9,3.2-1.7,5.1-2.5c0.8-2.7,2.8-11.8-0.3-19.7
												C62.1,162.9,50.8,166.6,45.7,177.8z M54.2,246.5c-9-13.8-5.4-17.4-9.6-26.1c4.2,6.3,2.3,12.3,10.9,25.4
												c7.8,11.9,17.6,15.4,17.6,15.4c2.7-5.9-0.2-13.2-1.5-15.8c-5.8-2.3-10.4-6.2-14.3-10.3c0.7,1.9,2.1,5.3,4,8.2
												c0,0-4.6-6.4-6.2-10.6c-1.5-1.8-3-3.5-4.3-5.2c0.3,1,0.8,2.9,1.1,4.3c0.4,2.1,2.2,7.2,4.2,9.8c0.2,0.3-4.4-5.4-5.3-10.3
												c-0.5-3-1.2-4.9-1.7-5.9c-1.7-2-3.1-3.8-4.5-5l0,0c0,0,0,0,0,0c0,0,0,0,0,0l0,0l0,0l0,0l0,0l0,0c0,0,0,0,0,0v0v0
												c0,0,0,0,0,0l0,0l0,0c-0.9-1.6-2.4-3.4-4.1-5.4c-0.9-0.6-2.6-1.6-5.5-2.7c-4.7-1.8-9.4-7.4-9.2-7.1
												c2.2,2.4,6.9,5.2,8.9,5.9c1.4,0.5,3.1,1.4,4.1,1.9c-1.4-1.6-2.8-3.3-4.3-5.2c-3.9-2.3-9.3-8.1-9.3-8.1
												c2.5,2.4,5.5,4.4,7.3,5.4c-3.3-4.6-6.3-9.9-7.5-15.9c-2.3-1.7-8.9-6-15.2-4.4c0,0,1.6,10.2,11.8,20.1
												c11.3,10.8,17.6,10.1,23,15.4c-7.8-5.7-12-2.8-23.9-14.2C9.8,195.8,9.4,184.5,9.4,184.5c7.5-2.6,15.3,3.1,15.4,3.8
												c-0.1-0.8-0.2-1.6-0.3-2.4c-1.5-16.4,11.3-25.8,11.3-25.8c3.8,5.6,6.8,11,9,15.9l-0.2-0.4c0,0,4.9-9.9,17.8-13.3
												c0,0,3.9,10,1.7,19.5c7.3-2.9,16.8-4.7,27.1-1.7c-4.4-1.1-19.6-3.3-40.7,11.9c0.8,3.1,1.2,5.4,1.3,6.3
												c0.3-0.3,0.7-0.6,1-0.9c11.8-9.8,21.7-7.5,26.2-5.7c0,0-11.9-4.3-25.5,7c-10.6,8.8-9.4,19.6-9.1,21.4l0.1,0.2
												c0,0,0,0,0,0c0,0,0-0.1,0-0.2c0,0.1,0,0.1,0,0.2c0.1,0,0.1,0,0.2,0c-0.1,0-0.1,0-0.2,0c0,0,0,0,0,0l0.2,0.1
												c1.6,0.6,12.1,3.8,22.7-5c13.6-11.3,11.6-23.7,11.6-23.7c0.9,4.7,1.3,14.9-10.4,24.7c-0.3,0.3-0.7,0.6-1,0.8
												c0.9,0.3,3,1.1,6,2.5c18.8-18,19.5-33.3,19.2-37.8c1,10.7-2.6,19.7-6.7,26.3c9.7-0.4,18.8,5.3,18.8,5.3
												c-5.7,12.1-16.4,15-16.4,15l-0.3-0.2c4.4,3.1,9.1,7,13.9,11.8c0,0-11.6,10.8-27.4,6.4c-0.8-0.2-1.6-0.5-2.3-0.8
												c0.7,0.3,4.9,9,0.9,15.9C73.4,261.6,62.4,259.1,54.2,246.5z M19.3,242.2c0.3-0.3,0.4-0.8,0.1-1.2
												c-0.3-0.3-0.8-0.4-1.1-0.1c-0.3,0.3-0.4,0.8-0.1,1.1C18.4,242.4,18.9,242.4,19.3,242.2z M34.9,267.9
												c-0.3-0.3-0.8-0.4-1.1-0.1c-0.3,0.3-0.4,0.8-0.1,1.1s0.8,0.4,1.1,0.1C35.1,268.7,35.2,268.2,34.9,267.9z M-3.1,222.1
												c-0.3-0.3-0.8-0.4-1.1-0.1c-0.3,0.3-0.4,0.8-0.1,1.2c0.3,0.3,0.8,0.4,1.1,0.1C-2.8,223-2.8,222.5-3.1,222.1z M22.7,201.3
												c-0.3-0.3-0.8-0.4-1.1-0.1c-0.3,0.3-0.4,0.8-0.1,1.1s0.8,0.4,1.1,0.1C22.9,202.2,23,201.6,22.7,201.3z M22.6,194.7
												c-0.3-0.3-0.8-0.4-1.1-0.1c-0.3,0.3-0.4,0.8-0.1,1.1c0.3,0.3,0.8,0.4,1.1,0.1C22.9,195.6,22.9,195.1,22.6,194.7z
												 M31.5,187.9c-0.3-0.3-0.8-0.4-1.1-0.1c-0.3,0.3-0.4,0.8-0.1,1.1s0.8,0.4,1.1,0.1C31.7,188.8,31.8,188.3,31.5,187.9z
												 M57.3,171.5c0.3,0.3,0.8,0.4,1.1,0.1c0.3-0.3,0.4-0.8,0.1-1.2c-0.3-0.3-0.8-0.4-1.1-0.1C57.1,170.7,57,171.2,57.3,171.5
												z M71.4,197.1c-0.3,0.3-0.4,0.8-0.1,1.1c0.3,0.4,0.8,0.4,1.1,0.1c0.3-0.3,0.4-0.8,0.1-1.2S71.8,196.8,71.4,197.1z
												 M69.6,208.7c0.3-0.3,0.4-0.8,0.1-1.1s-0.8-0.4-1.1-0.1s-0.4,0.8-0.1,1.1C68.8,208.9,69.3,209,69.6,208.7z M60.2,197.3
												c-0.3,0.3-0.4,0.8-0.1,1.1s0.8,0.4,1.1,0.1c0.3-0.3,0.4-0.8,0.1-1.1C61.1,197.1,60.6,197,60.2,197.3z M40,183.7
												c0.3,0.3,0.8,0.4,1.1,0.1c0.3-0.3,0.4-0.8,0.1-1.1s-0.8-0.4-1.1-0.1C39.7,182.8,39.7,183.3,40,183.7z M35.1,180.4
												c-0.3-0.3-0.8-0.4-1.1-0.1c-0.3,0.3-0.4,0.8-0.1,1.1c0.3,0.3,0.8,0.4,1.1,0.1C35.3,181.3,35.3,180.8,35.1,180.4z
												 M15.9,243.9c0.6,0.7,0.3,2-0.6,2.8c-1,0.8-2.2,0.8-2.9,0.1c0.8,1,2.2,1.1,3.2,0.3C16.6,246.3,16.7,244.8,15.9,243.9z
												 M13.1,244c1-0.8,2.2-0.8,2.9-0.1c-0.8-1-2.2-1.1-3.2-0.3c-1,0.8-1.1,2.2-0.3,3.2C11.8,246,12.1,244.8,13.1,244z
												 M86.8,188c-1.2,1-2.8,1.1-3.6,0.1c1,1.2,2.8,1.4,4,0.4s1.4-2.8,0.4-4C88.3,185.4,88,187,86.8,188z M83.5,184.1
												c-1.2,1-1.4,2.8-0.4,4c-0.8-0.9-0.4-2.5,0.8-3.5c1.2-1,2.8-1.1,3.6-0.1C86.5,183.2,84.7,183,83.5,184.1z M45.9,211.8
												c2-6.2,7.7-5.3,8.8-3.3c1.1,2.1-0.7,4.1-0.7,4.1c0.1,0,0.1-0.1,0.2-0.1l-0.1,0.2l0.8-0.3c0.9-0.3,2.2-0.5,3.4,0.4
												c1.8,1.4,1.6,7.2-4.9,8c-4.2,0.5-7.7-0.2-8.5-0.3c9.3,2.2,12.7,0.3,14.3-1.5c0.3-0.3,0.6-0.7,0.8-1.1
												c1.5-0.9,5.3-3.6,7.5-7.3c0,0-3.3,3.4-6.9,5.1c0-0.8-0.3-1.7-0.9-2.4c-0.9-1.1-2.4-1.6-3.7-1.4
												c3.2-2.6,10.7-9.6,10.7-9.6c-4,2.3-11.4,8.7-11.4,8.7l0,0c0.4-1.3,0.2-2.8-0.7-3.9c-0.6-0.8-1.4-1.2-2.3-1.3
												c2.3-3.2,6.3-5.8,6.3-5.8c-4.2,1.5-7.5,4.9-8.6,6.1c-0.4,0.1-0.7,0.3-1.1,0.5c-2,1.2-4.5,4.2-4.1,13.7
												C44.6,219.4,44.6,215.9,45.9,211.8z M44.5,220.4C44.5,220.4,44.6,220.4,44.5,220.4c0,0-0.2,0-0.5-0.1
												C44.4,220.3,44.6,220.4,44.5,220.4C44.6,220.4,44.6,220.4,44.5,220.4C44.6,220.4,44.6,220.4,44.5,220.4z M0,215.6
												c-3.8,2.4-2.3,4.4-1.8,5c0.4,0.5,1.6,1.3,2.3,0.6c1.3-1.3-0.1-2.4-0.1-2.4c0.5,0.6,0.4,1.4-0.2,1.9
												c-0.6,0.5-1.4,0.4-1.9-0.2c-0.5-0.6-0.3-1.3,0.2-1.9c8-10,44.1,1.2,46,1.8C15.2,211.1,4.6,212.7,0,215.6z M21.3,239.7
												l1.4-1.2c0,0-5.8-6.2,21.9-18.2C26.4,227,18,235.8,21.3,239.7z M22.1,223c0.5,6.5,15.2,0.4,15.2,0.4s-14,4.7-13.6-0.8
												c0.4-4.7,16.8-2.8,20.2-2.3C40.3,219.7,21.7,216.8,22.1,223z M92.7,180.5c-0.4-0.1-0.9-0.3-1.3-0.4
												C92.2,180.3,92.7,180.5,92.7,180.5"/>
										</g>
									</g>
								</g>
							</g>
						</g>
					</g>
				</g>
			</g>
		</g>
	</g>
	<g>
		<defs>
			<rect id="SVGID_00000144325583187209725830000004323852632316712837_" x="855" width="104.1" height="103"/>
		</defs>
		<clipPath id="SVGID_00000172405018203755267590000005609791407533922694_">
			<use xlink:href="#SVGID_00000144325583187209725830000004323852632316712837_"  style="overflow:visible;"/>
		</clipPath>
		<g style="clip-path:url(#SVGID_00000172405018203755267590000005609791407533922694_);">
			<g>
				<defs>
					
						<rect id="SVGID_00000166657474398178000760000005097554290615637685_" x="855.9" y="-5.9" transform="matrix(0.7376 -0.6752 0.6752 0.7376 206.4437 627.1768)" width="108.5" height="107.8"/>
				</defs>
				<clipPath id="SVGID_00000078759881153291821160000016521846125237475466_">
					<use xlink:href="#SVGID_00000166657474398178000760000005097554290615637685_"  style="overflow:visible;"/>
				</clipPath>
				<g style="clip-path:url(#SVGID_00000078759881153291821160000016521846125237475466_);">
					<g>
						<defs>
							
								<rect id="SVGID_00000155105763647564209920000011401843196633257150_" x="855.9" y="-5.9" transform="matrix(0.7376 -0.6752 0.6752 0.7376 206.4437 627.1768)" width="108.5" height="107.8"/>
						</defs>
						<clipPath id="SVGID_00000022536251926188912090000014377840040701662646_">
							<use xlink:href="#SVGID_00000155105763647564209920000011401843196633257150_"  style="overflow:visible;"/>
						</clipPath>
						<g style="clip-path:url(#SVGID_00000022536251926188912090000014377840040701662646_);">
							<g>
								<defs>
									
										<rect id="SVGID_00000075863343868124170190000016924203666889090235_" x="855.9" y="-6" transform="matrix(0.7376 -0.6752 0.6752 0.7376 206.4625 627.156)" width="108.5" height="107.8"/>
								</defs>
								<clipPath id="SVGID_00000024707183582424602020000002221418013289229501_">
									<use xlink:href="#SVGID_00000075863343868124170190000016924203666889090235_"  style="overflow:visible;"/>
								</clipPath>
								<g style="clip-path:url(#SVGID_00000024707183582424602020000002221418013289229501_);">
									<g>
										<defs>
											
												<rect id="SVGID_00000154394245088563259830000002526380264459367303_" x="855.9" y="-5.9" transform="matrix(0.7376 -0.6752 0.6752 0.7376 206.4391 627.1772)" width="108.5" height="107.7"/>
										</defs>
										<clipPath id="SVGID_00000108999254378246750280000007897233793368347528_">
											<use xlink:href="#SVGID_00000154394245088563259830000002526380264459367303_"  style="overflow:visible;"/>
										</clipPath>
										<g style="clip-path:url(#SVGID_00000108999254378246750280000007897233793368347528_);">
											<path class="st10" d="M903,14.3c-0.3-0.3-0.9-0.4-1.2-0.1c-0.3,0.3-0.4,0.9-0.1,1.2c0.3,0.3,0.9,0.4,1.2,0.1
												C903.3,15.1,903.3,14.6,903,14.3z M896.3,13.3c-0.3-0.3-0.9-0.4-1.2-0.1c-0.3,0.3-0.4,0.9-0.1,1.2
												c0.3,0.3,0.9,0.4,1.2,0.1C896.6,14.2,896.6,13.6,896.3,13.3z M886.8,22.6c0.3,0.3,0.9,0.4,1.2,0.1
												c0.3-0.3,0.4-0.9,0.1-1.2c-0.3-0.3-0.9-0.4-1.2-0.1C886.5,21.7,886.4,22.2,886.8,22.6z M866.1,46.9
												c-0.3-0.3-0.9-0.4-1.2-0.1c-0.3,0.3-0.4,0.9-0.1,1.2c0.3,0.3,0.9,0.4,1.2,0.1C866.4,47.8,866.4,47.3,866.1,46.9z
												 M879.9,31.9c0.3,0.3,0.9,0.4,1.2,0.1c0.3-0.3,0.4-0.9,0.1-1.2c-0.3-0.3-0.9-0.4-1.2-0.1C879.6,31,879.6,31.6,879.9,31.9
												z M878.5,25.2c0.3,0.3,0.9,0.4,1.2,0.1c0.3-0.3,0.4-0.9,0.1-1.2c-0.3-0.3-0.9-0.4-1.2-0.1S878.2,24.9,878.5,25.2z
												 M923.1-7.2c0.7-0.4,1.4-0.5,2,0.1s0.5,1.4-0.1,2c-0.6,0.5-1.5,0.5-2-0.1c0,0,0.9,1.6,2.5,0.4c0.9-0.7,0.2-1.9-0.2-2.5
												c-0.5-0.5-2.4-2.4-5.4,1.2c-3.7,4.3-6.9,15-1.6,46.5C917.9,38.5,911.6-0.3,923.1-7.2z M940.2,20.5l1.4-1.3
												c-3.6-3.9-13.9,3.5-23.3,21.3C934.6,13.7,940.2,20.5,940.2,20.5z M918.2,40.6C918.2,40.6,918.2,40.5,918.2,40.6
												C918.2,40.5,918.2,40.6,918.2,40.6C918.2,40.6,918.2,40.6,918.2,40.6c0,0,0-0.2,0-0.6C918.2,40.3,918.2,40.5,918.2,40.6z
												 M923.5,19.4c5.7,0.3-1.2,14.1-1.2,14.1s8.5-14.3,1.8-15.7c-6.3-1.3-6.1,18.3-6,22.1C918.2,36.4,918.6,19.2,923.5,19.4z
												 M869.9,83.2c0.1,0.9,0.2,1.4,0.2,1.4C870.1,84.1,870,83.6,869.9,83.2z M858.4,23.2c13.4,12.5,33,19.4,37.4,20.8
												c0.8-0.6,1.6-1.1,2.4-1.5c-9.5-4.1-13.8-8.8-13.8-8.8c5.1,3.8,12.8,6.9,15.5,7.9c1.6-0.8,3.2-1.3,4.8-1.6
												C890,30.4,881,26.1,881,26.1c8.9,2.3,24.5,12.5,26.3,13.4c1.7-0.2,3.3-0.2,4.6-0.1c-12.7-12.9-19.4-16.5-19.4-16.5
												c9.6,2.9,21.5,16.1,22.1,16.8c1.5,0.3,2.6,0.6,3.1,0.7l-0.9-0.4c0,0-2-1.2-7.3-7.2c-5.1-5.8-12.2-10.9-21.1-14.6
												C871.3,11.2,858.4,23.2,858.4,23.2z M880.1,48.9c-3.7,0.7-7.1-0.1-7.1-0.1c3.1,0.1,6.3-0.7,8.3-1.4
												c1.9-2.3,3.5-3.9,4.3-4.7c-6.3,2-16.4,3.7-16.4,3.7c6.4-3.1,12-4.8,14.6-5.5c-1.1-0.5-2.3-1.1-3.5-1.7
												c-5.2,1-9.1,3.6-9.1,3.6c2.9-2.8,5.7-4,7.2-4.6c-1.4-0.8-2.9-1.6-4.4-2.6l0.2,0.1c-12.3,3.8-17.7,14.9-17.7,14.9
												c7.7,4.3,17.3,3.4,20.2,3C877.8,51.9,879,50.3,880.1,48.9z M918.2,40.6C918.2,40.6,918.2,40.6,918.2,40.6
												C918.2,40.6,918.2,40.6,918.2,40.6L918.2,40.6L918.2,40.6z M918.4,41c0.1,0.5,0.3,1.7,0.5,3.2
												c0.7,0.7,12.7,13.7,14.8,23.5c0,0-3-7-14.7-20.8c0,1.4-0.2,3-0.5,4.6c0.8,1.9,9.5,18.3,11.1,27.4c0,0-3.5-9.3-11.8-24.8
												c-0.5,1.5-1.2,3.1-2.1,4.6c0.8,2.8,3.2,10.7,6.5,16.1c0,0-4.3-4.7-7.6-14.5c-0.5,0.8-1.1,1.5-1.7,2.2
												c1.1,4.5,6.2,24.6,17.4,39.1c0,0,13.1-11.8,7.5-29.6c-2.9-9.2-7.3-16.7-12.6-22.3c-5.5-5.8-6.5-7.9-6.5-7.9L918.4,41z
												 M919.2,84.9l0.1,0.2c-0.8-1.6-1.5-3.1-2.2-4.6c-0.7,1.5-2.2,4.2-5.2,6.8c0,0,2.9-3.6,4.4-8.7c-0.5-1.3-1-2.5-1.4-3.6
												c-0.9,2.5-3,7.9-6.7,14c0,0,2.7-10,5.2-16c-0.9,0.8-2.6,2.2-5,3.9c-0.9,1.9-2,5-2.2,8.1c0,0-0.4-3.5,0.5-7.1
												c-1.5,1-3.2,2-5.2,2.9c-0.7,2.9-2.4,12.4,1.2,20.4C902.7,101.2,914.3,96.8,919.2,84.9z M907.1,14
												c10,13.8,6.4,17.8,11.2,26.6c-4.6-6.3-3-12.7-12.5-25.8c-8.7-12-19-15-19-15c-2.6,6.3,0.9,13.7,2.3,16.3
												c6.1,2.1,11.1,5.9,15.3,9.9c-0.9-2-2.5-5.4-4.5-8.3c0,0,5.1,6.4,6.9,10.7c1.7,1.8,3.2,3.5,4.7,5.1c-0.4-1-1-2.9-1.3-4.4
												c-0.5-2.1-2.6-7.4-4.8-9.9c-0.2-0.3,4.8,5.4,6,10.4c0.7,3.1,1.5,5,2,6c1.8,2,3.4,3.8,4.9,4.9c0,0,0,0,0,0s0,0,0,0
												c0,0,0,0,0,0c0,0,0,0,0,0s0,0,0,0v0l0,0h0c0,0,0,0,0,0c0,0,0,0,0,0c0,0,0,0,0,0s0,0,0,0c1,1.6,2.6,3.4,4.5,5.4
												c1,0.6,2.8,1.6,5.8,2.5c4.9,1.6,10.1,7.1,9.8,6.9c-2.4-2.4-7.4-5-9.5-5.7c-1.5-0.5-3.3-1.3-4.3-1.7
												c1.5,1.6,3.1,3.3,4.7,5.1c4.1,2.2,10,7.9,10,7.9c-2.7-2.3-6-4.2-7.8-5.2c3.6,4.6,7,9.9,8.5,16.1c2.5,1.6,9.5,5.7,16,3.7
												c0,0-2.1-10.5-13.3-20.2c-12.2-10.6-18.7-9.5-24.6-14.7c8.3,5.5,12.6,2.3,25.5,13.5c11.8,10.2,12.8,21.8,12.8,21.8
												c-7.7,3.1-16-2.4-16.2-3.2c0.2,0.8,0.3,1.6,0.4,2.5c2.3,16.9-10.5,27.4-10.5,27.4c-4.3-5.6-7.6-11-10.1-16l0.2,0.4
												c0,0-4.6,10.5-17.9,14.8c0,0-4.5-10.1-2.7-20.1c-7.4,3.4-17.2,5.8-28.1,3.3c4.6,0.9,20.5,2.4,41.7-14.5
												c-1-3.2-1.5-5.5-1.7-6.5c-0.3,0.3-0.7,0.6-1,1c-11.8,10.8-22.2,8.9-26.9,7.3c0,0,12.5,3.8,26.1-8.7
												c10.6-9.7,8.8-20.9,8.5-22.7l-0.1-0.3c0,0,0,0,0,0c0,0,0,0.1,0,0.2c0-0.1,0-0.1,0-0.2c-0.1,0-0.1,0-0.2,0
												c0.1,0,0.1,0,0.2,0c0,0,0,0,0,0l-0.2-0.1c-1.7-0.5-12.7-3.3-23.3,6.4c-13.6,12.5-11,25.3-11,25.3
												c-1.2-4.9-2.1-15.4,9.7-26.2c0.3-0.3,0.7-0.6,1-0.9c-1-0.3-3.2-1-6.3-2.2c-18.7,19.7-18.7,35.6-18.2,40.3
												c-1.5-11.1,1.7-20.6,5.7-27.7c-10.1,0.9-19.8-4.5-19.8-4.5c5.4-12.8,16.3-16.5,16.3-16.5l0.4,0.2c-4.7-3-9.8-6.8-15-11.5
												c0,0,11.5-11.9,28.2-8.1c0.8,0.2,1.6,0.4,2.4,0.7c-0.7-0.2-5.5-9-1.7-16.4C886.4-0.6,897.9,1.4,907.1,14z M943.5,16.7
												c-0.3,0.3-0.4,0.9-0.1,1.2c0.3,0.3,0.9,0.4,1.2,0.1c0.3-0.3,0.4-0.9,0.1-1.2C944.4,16.4,943.9,16.3,943.5,16.7z
												 M926.1-9.2c0.3,0.3,0.9,0.4,1.2,0.1c0.3-0.3,0.4-0.9,0.1-1.2c-0.3-0.3-0.9-0.4-1.2-0.1C925.8-10.1,925.8-9.5,926.1-9.2z
												 M967.7,36.2c0.3,0.3,0.9,0.4,1.2,0.1c0.3-0.3,0.4-0.9,0.1-1.2c-0.3-0.3-0.9-0.4-1.2-0.1
												C967.4,35.3,967.4,35.9,967.7,36.2z M941.9,59.2c0.3,0.3,0.9,0.4,1.2,0.1c0.3-0.3,0.4-0.9,0.1-1.2
												c-0.3-0.3-0.9-0.4-1.2-0.1C941.6,58.4,941.6,58.9,941.9,59.2z M942.3,66c0.3,0.3,0.9,0.4,1.2,0.1
												c0.3-0.3,0.4-0.9,0.1-1.2c-0.3-0.3-0.9-0.4-1.2-0.1C942,65.2,942,65.7,942.3,66z M933.4,73.6c0.3,0.3,0.9,0.4,1.2,0.1
												c0.3-0.3,0.4-0.9,0.1-1.2c-0.3-0.3-0.9-0.4-1.2-0.1C933.1,72.7,933.1,73.2,933.4,73.6z M907.4,92
												c-0.3-0.3-0.9-0.4-1.2-0.1c-0.3,0.3-0.4,0.9-0.1,1.2c0.3,0.3,0.9,0.4,1.2,0.1C907.7,92.9,907.7,92.4,907.4,92z
												 M891.5,66.2c0.3-0.3,0.4-0.9,0.1-1.2s-0.9-0.4-1.2-0.1s-0.4,0.9-0.1,1.2C890.6,66.5,891.1,66.6,891.5,66.2z M892.8,54.1
												c-0.3,0.3-0.4,0.9-0.1,1.2s0.9,0.4,1.2,0.1s0.4-0.9,0.1-1.2C893.7,53.8,893.2,53.8,892.8,54.1z M903.1,65.4
												c0.3-0.3,0.4-0.9,0.1-1.2c-0.3-0.3-0.9-0.4-1.2-0.1c-0.3,0.3-0.4,0.9-0.1,1.2S902.8,65.7,903.1,65.4z M924.8,78.5
												c-0.3-0.3-0.9-0.4-1.2-0.1s-0.4,0.9-0.1,1.2c0.3,0.3,0.9,0.4,1.2,0C925.1,79.4,925.1,78.8,924.8,78.5z M930.1,81.6
												c0.3,0.3,0.9,0.4,1.2,0.1c0.3-0.3,0.4-0.9,0.1-1.2c-0.3-0.3-0.9-0.4-1.2-0.1C929.8,80.7,929.7,81.2,930.1,81.6z
												 M946.9,14.7c-0.7-0.7-0.4-2.1,0.5-2.9c1-0.9,2.3-1,3-0.3c-0.9-1-2.4-1-3.3-0.1C946.1,12.2,946.1,13.7,946.9,14.7z
												 M949.9,14.4c-1,0.9-2.3,1-3,0.3c0.9,1,2.4,1,3.3,0.1c1-0.9,1-2.4,0.2-3.3C951.1,12.2,950.9,13.5,949.9,14.4z M876,76.5
												c1.2-1.1,2.9-1.3,3.7-0.3c-1.1-1.2-3-1.3-4.2-0.2c-1.2,1.1-1.3,3-0.2,4.2C874.5,79.3,874.8,77.7,876,76.5z M879.5,80.4
												c1.2-1.1,1.3-3,0.2-4.2c0.9,0.9,0.6,2.6-0.7,3.7s-2.9,1.3-3.7,0.3C876.4,81.5,878.3,81.5,879.5,80.4z M917.4,49.6
												c-1.7,6.6-7.7,5.9-8.9,3.9c-1.3-2.1,0.6-4.3,0.6-4.3c-0.1,0.1-0.1,0.1-0.2,0.2l0.1-0.2l-0.8,0.4
												c-0.9,0.4-2.3,0.7-3.6-0.2c-1.9-1.4-2-7.4,4.7-8.6c4.3-0.8,8-0.2,8.8-0.1c-9.8-1.8-13.2,0.4-14.7,2.3
												c-0.3,0.4-0.5,0.8-0.7,1.2c-1.5,1-5.3,4-7.5,8c0,0,3.3-3.7,6.9-5.7c0,0.9,0.3,1.7,1,2.4c1,1.1,2.5,1.6,3.9,1.3
												c-3.2,2.9-10.6,10.6-10.6,10.6c4-2.6,11.5-9.6,11.5-9.6l0,0c-0.4,1.4-0.1,2.9,0.9,4c0.7,0.8,1.5,1.1,2.4,1.2
												c-2.3,3.5-6.3,6.4-6.3,6.4c4.2-1.8,7.6-5.5,8.7-6.8c0.4-0.2,0.7-0.4,1.1-0.6c2-1.3,4.5-4.6,3.6-14.5
												C918.3,41.6,918.5,45.3,917.4,49.6z M918.3,40.6C918.3,40.6,918.3,40.6,918.3,40.6c0,0,0.2,0,0.6,0.1
												C918.5,40.6,918.3,40.6,918.3,40.6C918.3,40.6,918.3,40.6,918.3,40.6C918.3,40.6,918.3,40.6,918.3,40.6z M964.9,43.1
												c3.8-2.7,2.2-4.7,1.7-5.3c-0.5-0.5-1.7-1.3-2.4-0.5c-1.3,1.4,0.2,2.5,0.2,2.5c-0.5-0.6-0.5-1.4,0.1-2
												c0.6-0.5,1.4-0.5,2,0.1s0.4,1.3-0.1,2c-7.9,10.8-45.9,1.2-47.9,0.6C949.3,48.7,960.2,46.4,964.9,43.1z M941.6,19.3
												l-1.4,1.3c0,0,6.3,6.2-21.9,20.1C936.8,32.8,945.2,23.2,941.6,19.3z M941.5,36.7c-0.8-6.7-15.8,0.4-15.8,0.4
												s14.4-5.6,14.2,0.1c-0.2,4.9-17.3,3.8-20.9,3.5C922.7,41.1,942.2,43.1,941.5,36.7z M870.2,84.6c0.5,0.1,0.9,0.2,1.4,0.3
												C870.7,84.8,870.2,84.6,870.2,84.6"/>
										</g>
									</g>
								</g>
							</g>
						</g>
					</g>
				</g>
			</g>
		</g>
	</g>
	<g>
		<defs>
			<rect id="SVGID_00000139991004676350709420000015655364816270720695_" x="846" y="139" width="113.1" height="123"/>
		</defs>
		<clipPath id="SVGID_00000171000398144688167310000006939061395654340230_">
			<use xlink:href="#SVGID_00000139991004676350709420000015655364816270720695_"  style="overflow:visible;"/>
		</clipPath>
		<g style="clip-path:url(#SVGID_00000171000398144688167310000006939061395654340230_);">
			<g>
				<defs>
					
						<rect id="SVGID_00000151503815863998440340000011441731784261830033_" x="837.6" y="141.4" transform="matrix(0.3294 -0.9442 0.9442 0.3294 414.0286 978.0526)" width="116" height="112.3"/>
				</defs>
				<clipPath id="SVGID_00000085939477002127511680000014833508837918323341_">
					<use xlink:href="#SVGID_00000151503815863998440340000011441731784261830033_"  style="overflow:visible;"/>
				</clipPath>
				<g style="clip-path:url(#SVGID_00000085939477002127511680000014833508837918323341_);">
					<g>
						<defs>
							
								<rect id="SVGID_00000131352704603657345500000008987089194796531640_" x="837.6" y="141.4" transform="matrix(0.3294 -0.9442 0.9442 0.3294 414.0286 978.0526)" width="116" height="112.3"/>
						</defs>
						<clipPath id="SVGID_00000128468951760249539270000009714126380581778086_">
							<use xlink:href="#SVGID_00000131352704603657345500000008987089194796531640_"  style="overflow:visible;"/>
						</clipPath>
						<g style="clip-path:url(#SVGID_00000128468951760249539270000009714126380581778086_);">
							<g>
								<defs>
									
										<rect id="SVGID_00000016760440581334210060000011529190775594926471_" x="837.6" y="141.4" transform="matrix(0.3294 -0.9442 0.9442 0.3294 414.1028 978.0822)" width="115.9" height="112.3"/>
								</defs>
								<clipPath id="SVGID_00000098190008211902884050000000573074823319935935_">
									<use xlink:href="#SVGID_00000016760440581334210060000011529190775594926471_"  style="overflow:visible;"/>
								</clipPath>
								<g style="clip-path:url(#SVGID_00000098190008211902884050000000573074823319935935_);">
									<g>
										<defs>
											
												<rect id="SVGID_00000084493829924414019740000015679580861896379569_" x="837.6" y="141.4" transform="matrix(0.3294 -0.9442 0.9442 0.3294 414.0349 978.0555)" width="115.9" height="112.3"/>
										</defs>
										<clipPath id="SVGID_00000098214532629462441700000006623981895873943939_">
											<use xlink:href="#SVGID_00000084493829924414019740000015679580861896379569_"  style="overflow:visible;"/>
										</clipPath>
										<g style="clip-path:url(#SVGID_00000098214532629462441700000006623981895873943939_);">
											<path class="st10" d="M931.2,206.7c0,0,2.2,1.1,2.8,3.6s1.9,5.6,5,3.6C942,211.8,936.7,206.5,931.2,206.7z M930,205.8
												c5.4-0.2,11.8,3.2,10,7c-2,4.2-6.1,2.5-6.7-1.8C932.7,206.9,930,205.8,930,205.8z M901.9,223.7c0,0-0.1,0.1-0.1,0.1
												c3.3,10.4,8.8,7.7,10.7,5.8c-0.7-0.2-1.4-0.4-2-0.7c-0.2,0.4-0.7,0.7-1.6,0.7c-1.4,0-2-1.2-1.9-2.4
												C904.4,225.8,902.6,224.3,901.9,223.7z M907.8,227.7c0,0.8,0.5,1.5,1.2,1.5c0.5,0,0.8-0.2,1-0.4
												C909.3,228.4,908.5,228,907.8,227.7z M916.9,230.5c-1.1-0.1-2.1-0.3-3.1-0.6c-0.6,3.7-2.3,7.8-6.5,11
												c-8.6,6.7-7.1,15.9-7.1,15.9c-10.3-5.3-10.6-17.9-9.7-25.5c-0.7,0.2-1.4,0.4-2.1,0.5c-0.3,5.9,0.9,14.5,4.6,20.6
												c4.3,7.3,11.1,8.7,13.6,9c-1.5-0.6-2.8-2-3.7-4.5c-2.7-7.9,3.9-14,10.3-19.1C915.6,235.9,916.6,233.2,916.9,230.5z
												 M898.1,246.4c-0.6-0.2-1-0.6-1.3-1c0.6,3.3,1.5,6,2.2,7.5c-0.3-2.2,0.4-4.3,1.5-6.3C899.8,246.8,899,246.8,898.1,246.4z
												 M891.7,231c-1.8,19.2,7.6,24.5,8,24.7c-7.8-12-3.5-23.7-0.4-29.5c-0.6,0.7-1.3,1.3-2,1.9c-0.3,0.2-0.7,0.5-1,0.7
												c-0.4,0.6-0.8,0.9-1.3,0.8C893.9,230.2,892.8,230.7,891.7,231z M901.2,240.4c-3.6-1.4-3.8-6.2-3.5-8.9
												c-1.4,4.2-1.6,8.3-1.2,11.9c1.1,2.8,3.3,2.8,4.6,2.3c0.5-0.7,1-1.4,1.6-2.1c0-0.7-0.4-1.3-1.5-1.5
												c-2-0.4-2.8,2.1-1.6,2.4c1.2,0.3,1.4-1.3,1.4-1.3s0.1,2.1-1.6,1.6c-1.8-0.5-0.8-3.4,1.3-3.4c1.4,0,2,1,2.2,1.9
												c0.7-0.9,1.5-1.8,2.4-2.6C904.2,241,902.9,241,901.2,240.4z M901.7,224c-1.7,2.3-3,4.6-3.8,6.9c0.5,12.3,8.7,8.7,9.5,7.4
												c0.8-1.3,1.4-3.7-1.7-4.3c-3-0.6-4.2,3.2-2.4,3.6c1.8,0.4,2.2-1.9,2.2-1.9s0.2,3.1-2.4,2.4c-2.6-0.7-1.1-5.1,1.9-5
												s3.8,3.5,3.3,4.6c0,0,0,0.1,0,0.1c0.6-0.6,1.3-1.3,1.9-1.9c1.7-1.8,2.6-3.7,3-5.6c-0.7,1.4-2.2,2.7-5.4,2.4
												C903.3,232.1,902,226.1,901.7,224z M877.9,199.4C877.9,199.4,877.9,199.4,877.9,199.4c0,0-1-0.1-1.4-0.1
												c-0.2,0-0.5-0.1-0.7-0.1c-3.6,0.6-6.8,2.1-9.1,3.9C871,202.9,874.7,201.4,877.9,199.4z M890.5,197.9
												c0.2-0.1,0.4-0.2,0.7-0.3C890.9,197.7,890.7,197.8,890.5,197.9C890.4,197.9,890.4,197.9,890.5,197.9z M893.1,196.9
												c1.2-0.4,2.5-0.8,3.6-0.9c-0.4-0.1-0.9-0.2-1.4-0.2C895,196,894.3,196.4,893.1,196.9z M898.2,196.3l0.1,0.2
												c0-0.1,0-0.1,0.1-0.1C898.3,196.4,898.3,196.3,898.2,196.3z M895.5,195.2c0.6,0.2,1.1,0.3,1.5,0.4
												c-0.4-0.2-0.9-0.5-1.5-0.7C895.5,195,895.5,195.1,895.5,195.2z M898.2,195.9c-0.2-0.3-0.4-0.7-0.7-1.1c0,0.4,0,0.6,0,0.6
												l0,0.1C897.8,195.7,898,195.8,898.2,195.9z M897.1,195.3c-0.2-0.3-0.7-0.8-1.6-1.5c0,0.2,0,0.5,0,0.7
												C896.1,194.8,896.6,195.1,897.1,195.3z M897.2,195c0-0.2,0-0.4,0-0.7c-0.4-0.6-1-1.2-1.7-1.9c0,0.3,0,0.6,0,0.9
												C896.3,194.1,896.9,194.6,897.2,195z M897.1,193.7c-0.1-0.6-0.3-1.2-0.6-2c-0.1,0-0.2,0.1-0.3,0
												c-0.2-0.1-0.4-0.4-0.3-0.6c0,0,0-0.1,0-0.1c0-0.1,0.1-0.2,0.2-0.2c-0.2-0.4-0.5-0.9-0.9-1.3c0.1,0.8,0.2,1.6,0.3,2.5
												C896.1,192.6,896.6,193.2,897.1,193.7z M895,188.9c0.6,0.6,1,1.3,1.3,1.9c0,0,0.1,0,0.1,0c0.2,0.1,0.4,0.4,0.3,0.6
												c0,0,0,0.1,0,0.1c0,0,0,0,0,0c0.4,1,0.6,2,0.7,2.7c0.5,0.6,0.8,1.1,1,1.5c0-0.3,0-0.7-0.1-1c0,0-0.1,0.1-0.1,0.1
												c0,0,0.1-0.1,0.1-0.1c-0.1-0.5-0.1-1-0.2-1.4c-0.1-0.1-0.1-0.2-0.1-0.4c-0.8-3.1-2.6-5.1-3.2-5.8c-0.1,0-0.1,0.1-0.2,0.1
												C894.8,187.7,894.9,188.3,895,188.9z M893.7,187.7L893.7,187.7c0.1,0,0.1,0,0.2,0c-0.1-0.1-0.1-0.3-0.2-0.4
												C893.8,187.4,893.7,187.6,893.7,187.7z M894.7,186.2C894.7,186.2,894.7,186.2,894.7,186.2
												C894.6,186.2,894.6,186.2,894.7,186.2C894.6,186.2,894.6,186.2,894.7,186.2z M895,186.8c0.6,0.6,2.4,2.6,3.3,5.7
												c0.3-0.2,0.8,0.1,0.7,0.6c-0.1,0.2-0.3,0.3-0.5,0.3c0.1,0.3,0.1,0.7,0.2,1c0.1,0,0.1-0.1,0.2-0.2
												c0.1-0.6,0.3-1.2,0.5-1.9c0.2-1.6,0.3-3.3-0.1-4.7c0,0-0.1,0-0.1,0c-0.2-0.1-0.4-0.4-0.3-0.6c0,0,0-0.1,0-0.1
												c0.1-0.3,0.4-0.4,0.6-0.3s0.4,0.4,0.3,0.6c0,0,0,0.1,0,0.1c0,0.1-0.1,0.2-0.2,0.2c0.3,1,0.3,2.1,0.3,3.2
												c0.5-1.4,1.1-2.8,1.9-3.7c-0.1-0.2-0.1-0.5,0.1-0.6c0.2-0.2,0.5-0.1,0.7,0.1c0,0,0.1,0.1,0.1,0.1
												c0.2,0.2,0.1,0.5-0.1,0.7c-0.2,0.2-0.4,0.1-0.6,0c-1,1.3-1.7,3.3-2.2,5.1c-0.1,0.4-0.1,0.9-0.2,1.3
												c3.2-3.3,11.1-12.6,10.9-23.5c-0.1-13.8-13.3-15.2-14.6-18.6c0,0-7.1,3.5-7.3,16.4c-0.1,9,3.8,12.4,5.8,18.2
												c0,0,0,0,0.1,0c0.2,0,0.4,0.1,0.5,0.2c0.1,0.1,0.2,0.2,0.2,0.4C895.1,186.7,895,186.8,895,186.8z M898.8,194.3
												c0,0-0.1,0.1-0.1,0.1c0,0.1,0,0.2,0,0.4C898.8,194.6,898.8,194.4,898.8,194.3z M880.2,157.6c0.5-0.1,2.3-0.5,3.2-1.5
												c1.1-1.1,1.4-1.3,1.4-1.3s-1.8-2-4.2-1.5c0,0-1.1,1.7-2.8,1.9c0.4,0.3,0.8,0.6,1.1,0.9c0.7-0.8,2.1-1.2,2.1-1.2
												c-0.6,0.2-1.3,1.1-1.6,1.6C879.7,157,880,157.2,880.2,157.6z M871.7,153c0.3-0.9,0.8-2.6,0.8-3.9c0.2,1.2,0.3,2.8-0.1,4
												c0.3,0,0.6,0.1,0.9,0.1c0.6-0.7,2.4-2.9,2.1-4.9c-0.3-2.4-2.9-6.3-2.7-7.8c0,0-2.2,2-3.5,2.8c-1.3,0.8-1.9,2.8-1.8,3.2
												c0,0,3.6,3.4,2.8,6.7C870.8,153.1,871.3,153,871.7,153z M869.7,153.4c-0.1-1.3-0.4-4.5-2.8-6.7c-3-2.8-8.2-2.3-10.3-4
												c0,0,0.8,3.3,1.2,6.3c0.4,3,2,6.9,5.8,8.2c0.4,0.1,1,0.2,1.4,0.2c0.5-0.9,1.1-1.7,2.1-2.5
												C867.9,154.2,868.8,153.7,869.7,153.4z M859,154.2c0,0-2,0-3.4,0.8c-1.4,0.8-2.3,1-2.4,1c-0.1,0,2.3,2.2,3.2,3.2
												c0.9,1,3.5,3.9,7.7,2.1c-0.1-0.5-0.1-1,0-1.5c-0.9,0.1-3.1,0.1-4.8-1.3c0,0,2.9,1.1,5,0.6c0.1-0.2,0.1-0.5,0.2-0.7
												C863.6,158.1,861.4,157.4,859,154.2z M864.5,162.2c-0.4,0-1.6,0.1-2.8,1.1c-1.5,1.3-0.3,3.6-1,4.5c0,0,3-0.4,3.9-1.3
												c0.7-0.6,1-1.6,1.2-2.1c-0.3-0.3-0.6-0.7-0.8-1c-0.6,0.3-2,0.9-2.8,1.5c0,0,1.2-1.8,2.4-2.1
												C864.7,162.7,864.6,162.5,864.5,162.2z M876,148.2c0,0,0.2,3.8-1.7,5.2c0.3,0.1,0.5,0.2,0.8,0.3c0.8-0.4,3.1-1.6,3.8-3
												c0,0-0.9,2.1-2.8,3.5c0.4,0.2,0.7,0.4,1.1,0.7c0.9-0.2,2.7-0.9,3.6-2.8c1.1-2.4,1.2-4.7,1.8-5.6
												C882.5,146.5,877.8,146.6,876,148.2z M915.7,159.4c1.1-2.1,1.6-6.1,2.7-7.8c0,0-8.3,4-6.1,10c0,0,0.5-2.7,1.6-3.7
												c0,0-1.1,3.5-0.9,4.2C913.1,162.3,914.7,161.5,915.7,159.4z M900.4,198.1c0.1,0.2,0.2,0.4,0.3,0.6c0,0,0.1,0,0.1,0
												C900.7,198.5,900.5,198.3,900.4,198.1z M898.3,197.7c-0.1,0-0.2,0-0.2,0c-0.3,0.6-0.7,1.3-1.1,2.1
												c0.2,0.1,0.4,0.3,0.3,0.5C897.7,199.5,898.1,198.6,898.3,197.7z M899.1,199.3c0,0.9-0.2,2-0.6,3.1c0,0.1,0,0.1-0.1,0.2
												c0.3-0.1,0.6,0,0.7,0.3C899.4,201.6,899.3,200.3,899.1,199.3z M890,198.7C890,198.7,890,198.7,890,198.7
												C890,198.7,890,198.7,890,198.7C890,198.7,890,198.7,890,198.7z M951.5,156.8c-0.6,1.3-1.7,1.3-6.3-0.2
												c-4.5-1.5-12.1-0.3-19.2,3.4s-10.2,11-10.2,11l-3.8,8c2.2-3.3,6.7-9.3,13.3-14.6c4.8-3.9,14.4-6.8,24-4.3
												c9.7,2.5,13.1,8,11.4,8.8c-1.7,0.8-3.8-2.4-8.8-5.5c-5.1-3.1-16-4.2-23.7,0c-4.2,2.3-7.1,5.3-8.9,7.6
												c-1.4,1.9-3.1,4.7-3.5,5.3c-0.7,1.2-1.1,2-1.2,2.5c1-0.6,2.2-1.1,3.4-1.5l0.5-0.9c1.5-2.8,4.8-5.7,7.6-7.4
												c12.6-7.5,25.5-4.8,31.5,3.6s1.5,13.2-1.1,14.8c-2.6,1.5-7.7,1.8-9.2-2.7c-1.5-4.5,2-7.2,5-6.6c2.9,0.6,3.6,4.2,1.9,5.1
												c-1.7,1-2.6-0.4-2.6-0.4c1.2,1.5,4.6-1.8,1.3-3.9c-3.3-2-7.9,3.5-3.6,7.3c4.3,3.8,12.2-1.6,10.3-7.7
												c-1.9-6-7.6-13.6-20.7-13c-12.2,0.5-18.9,10-19.9,11.4c1.2-0.4,2.5-0.6,3.8-0.7c1-1,2.2-2,3.5-2.4
												c-0.1-0.6,0.1-1.1,0.6-1.5c0.6-0.4,1.4-0.2,1.8,0.5c0.4,0.6,0.2,1.4-0.5,1.8c-0.6,0.4-1.4,0.2-1.8-0.5c0,0,0,0,0-0.1
												c-0.6,0.5-1.6,1.2-2.6,2.1c0.1,0,0.1,0,0.1,0c4.9,0.2,10.4,3.7,14.9,7l0.6,0.4c1.1,0.8,2.1,1.6,3.1,2.3l0.4,0.3
												c1.8,1.4,3.3,2.3,4.1,2.5c0,0-0.4,0.7-1.3,1.7l-0.6,0.8c-0.3,0.4-0.7,0.9-1.2,1.3l-0.8,0.8c-1.7,1.8-3.9,3.8-6.6,5.6
												l-1.7,1.1c-3,1.7-6.5,3.2-10.4,3.7h0c1.2,2.1,2,4.1,2.7,6l0.1,0.2c4,12-1.1,19.8-1.1,19.8c-2.5,0.7-5,1-7.3,0.9
												c0,0.9-0.2,1.9-0.5,2.9c-1.9,5.5-9.3,9.2-12.7,13.8c-3.4,4.6-1.3,13.7,2.5,14c3.7,0.2,5.8-3.4,5.4-5.7
												c-0.5-2.3-2.9-2.9-4.5-1.5c-1.6,1.3-0.3,3.3-0.3,3.3c-2.6-3.7,2.7-5.9,4.5-3.9c1.7,1.9,1.2,5.6-0.4,7.2
												c-0.2,0.2-0.7,0.5-1.2,0.8c0,0,0,0-0.1,0.1c0,0-0.1,0-0.1,0c0,0-0.1,0-0.1,0c-0.2,0.1-0.3,0.1-0.5,0.2
												c-2.5,0.7-10.3,1.9-18.1-8c-5.8-7.3-6.2-15.9-5.6-21.6c-8.3,1.2-16.7-1-18.3-1c0,0,0-17.3,2-24.1c0.7-2.2,2.2-4,4.1-5.3
												c-2.9,1.2-5.9,1.9-9.1,2c-3.6,3.1-5.1,6.9-3.4,8.8c3.1,3.4,5.9,0.7,5.9,0.7c-3.4,3.7-7,0.1-7-2.4c0-2.7,1.5-5.1,3.5-7
												c-1.5,0-2.9-0.2-4.4-0.5c-12-2.6-16.2-11.8-13.5-16.7c2.7-4.9,6.4-5.6,9.6-4.3c3.1,1.4,5.2,6.7,1.3,9.1
												c-3.9,2.3-7.2-1.7-5.8-3.7c1.3-1.9,2.9-0.8,2.9-0.8c-0.6-0.1-2.2,0.2-2.5,1.5s1.7,3.9,4.3,2.5c2.6-1.3,2.7-4.9,1.1-6.5
												c-1.6-1.6-6.6-3.9-9.9,2.2c-3.3,6,3.7,16.2,17.8,16.5c2.5-2.1,5.6-3.6,7.5-4.4c-0.6-0.2-1.1-0.3-1.7-0.5
												c-1.3-0.4-2.4-1.1-3.5-1.8c0,0-0.6-0.5-0.8-0.6c-7.8-6.4-9.1-20-12-22.2c0,0,9.7-2.9,19.9-1.2c0,0,2.8,0.6,3.9,0.9
												c3.2,0.9,6.3,2.4,9.1,4.7c0,0-16.6-8-29.8-3.6c0,0,2.8,15.6,11.9,21.2c8.3,5.2,22.7,1.1,25.1,0.4
												c-1.8-0.2-3.9-0.2-5.9,0.5c0,0.1,0,0.2,0,0.3c-0.1,0.2-0.4,0.4-0.6,0.3c-0.1,0-0.1,0-0.2-0.1c-0.2-0.1-0.4-0.4-0.3-0.6
												c0.1-0.2,0.4-0.4,0.6-0.3c0.1,0,0.1,0,0.2,0.1c0.1,0,0.1,0.1,0.1,0.1l0,0c2.1-0.7,4.4-0.7,6.2-0.5
												c-2.4-0.6-5.6-1.3-8.4-1.4l0-0.3c2.8,0,6.2,0.8,8.6,1.4c0-0.1,0-0.2,0-0.3c-1.4-0.6-3.1-1.3-4.8-1.7
												c-0.2,0.5-1.1,0.2-0.9-0.3c0.2-0.5,0.8-0.4,0.9,0c1.6,0.4,3.3,1.1,4.7,1.7c0-0.2-0.1-0.5-0.1-0.9
												c-0.1-0.1-0.2-0.2-0.4-0.3c-0.3,0.4-1,0.1-0.8-0.4c0-0.1,0-0.1,0.1-0.1c-1-0.7-2.2-1.4-3.7-2.1c-0.3,0.2-0.9-0.1-0.7-0.6
												c0.2-0.6,1.1-0.3,0.9,0.3c1.5,0.7,2.8,1.5,3.8,2.2c0.3,0,0.5,0.1,0.6,0.4c0.1,0.1,0.1,0.1,0.2,0.2
												c-0.1-0.4-0.1-0.7-0.2-1.1c-0.4-0.4-0.8-0.7-1.3-1.1c-0.1,0.2-0.4,0.3-0.6,0.3c0,0-0.1,0-0.1,0c-0.3-0.1-0.4-0.4-0.3-0.6
												c0-0.1,0.1-0.2,0.2-0.2c-0.2-0.2-0.5-0.3-0.7-0.5c0,0,0,0,0,0c-0.2,0.6-1.1,0.3-0.9-0.3c0.1-0.4,0.6-0.4,0.8-0.1h0
												c0.5,0.3,0.9,0.6,1.3,0.9c0,0,0,0,0,0c0.1,0,0.2,0.1,0.2,0.2c0.4,0.3,0.9,0.7,1.2,1c-0.2-0.9-0.5-2-0.8-3.2
												c-0.2-0.1-0.3-0.3-0.5-0.4l0,0c0,0-0.1,0.1-0.1,0.1c0,0-0.1,0-0.1,0c-0.2,0.1-0.5,0-0.6-0.2c-0.1-0.2,0-0.5,0.2-0.6
												c0,0,0.1,0,0.1-0.1c0.2-0.1,0.5,0,0.6,0.2c-0.9-2.4-2.1-5.1-4.1-7.9c-0.3-0.4-0.6-0.9-0.8-1.3c0,0-0.1-0.1-0.2-0.4
												c-3.1-2.2-11.6-7.8-19.5-7.9c0,0,4.4-2.3,15.4,4.4c-0.1-0.1-0.1-0.1-0.2-0.2c-2.1-2.5-1.1-4.9-1.4-8
												c-0.4-3.1-1.8-6.8-5-9.4c-5.1-4.1-11.9-2.4-12.8,2.6c-0.9,5,3.4,7.5,5.7,6.4s2.3-3.9,0.7-5s-3.2-0.2-3.2-0.2
												c2.1-1.5,3.9-0.9,4.9,1.3c1,2.2-1.3,6.6-5.4,4.5c-0.5-0.3-0.9-0.6-1.3-0.9c0,0,0,0,0,0c0,0,0.1,1.1-1.5,2.1
												c-1.6,1-4.1,1-5,1.5c0,0-0.2-4.9,1.4-6.4c0,0-2.1,0.2-4.4-1.6c-2.3-1.8-3.3-4.3-5.3-5.3c0,0,1.5,0,3-1.1s3.8-1.2,3.8-1.2
												s-1.1-2-1.5-5.2c-0.4-3.2-1.4-6.3-1.4-6.3s3.5,1.4,6.3,2c2.8,0.5,4.8,2.1,4.8,2.1s-0.2-1.6,2.1-2.9
												c2.3-1.3,4.3-3.9,4.3-3.9s0.4,3,1.4,4.7c1,1.7,1.3,2.9,1.5,3.5c0,0,1.9-0.8,4-1c2.1-0.2,3.5-0.9,3.5-0.9s-1,2.3-1.5,4
												c-0.4,1.7-0.5,3-0.9,3.4c0,0,2.5-0.3,4.3,2.1c0,0-0.9,0.7-1.6,1.5c-0.7,0.8-1.6,1.9-3,1.7c0.2,0.2,0.3,0.4,0.5,0.6
												c1.5,1.8,2.2,3.8,2.4,5.6c0,0,0,0,0,0c0,0,0,0,0,0c0.5,3-0.9,7.4,3,11.2c0.5,0.4,1.1,0.7,1.6,1.1c-0.6-1.6-1.4-4-1.8-5.8
												c0-0.4-0.1-0.7-0.1-1.1c0-0.7,0-1.6,0-2.6c0.3-6.7,3.6-13.4,9.9-17.1c0,0,0.1,2.1,6.7,4.4c3.1,1.1,7.2,5.4,8.4,11.9
												c0.3-1.5,0.6-2.8,0.6-2.8s-2.8-1.8-0.1-6.7c2.7-4.9,8.5-6.4,8.5-6.4c-3.5,3.2-3,7.8-4.1,9.8c-1.1,2-3.6,3.6-3.6,3.6
												c-1,2-0.8,6-0.8,6l-0.1,0c0.1,6.7-2.9,15-12.3,24c-0.2,0.9-0.4,1.7-0.5,2.1l3.8-3l0,0l0-0.1l0.3,0.1l-2.9,2.3
												c1.6-0.8,4.1-1.9,6.2-1.8c0.1-0.2,0.4-0.4,0.6-0.3s0.4,0.4,0.3,0.6c0,0,0,0.1,0,0.1c-0.1,0.2-0.4,0.4-0.6,0.3
												c-0.2-0.1-0.3-0.2-0.3-0.4c-2.5,0-5.8,1.7-7.1,2.4c0.9,0.1,2.5,0.1,3.8,0.1c-0.2-0.1-0.4-0.3-0.3-0.6
												c0.2-0.6,1.1-0.3,0.9,0.3c-0.1,0.1-0.1,0.2-0.3,0.3c0.4,0,0.8,0,1.1,0c0.1-0.2,0.2-0.3,0.3-0.3c0.2,0,0.5,0.1,0.6,0.4
												c0,0.1,0,0.1,0,0.2c0,0.3-0.1,0.5-0.4,0.6c-0.2,0-0.5-0.1-0.6-0.4c0,0,0-0.1,0-0.1c-0.9,0-2.8,0-4.3,0
												c1.6,0.5,4.1,1.5,5.1,3.5c0.2,0.1,0.3,0.2,0.3,0.3c0,0.2-0.1,0.5-0.4,0.6c-0.1,0-0.1,0-0.2,0c-0.3,0-0.5-0.1-0.6-0.4
												c0-0.2,0.1-0.5,0.4-0.6c0,0,0,0,0.1,0c-1.2-2.1-4.1-3-5.6-3.4c1.4,0.9,3.3,1.9,3.3,1.9l-0.1,0.1c0.3,0,0.6,0.3,0.5,0.6
												c-0.2,0.6-1.1,0.3-0.9-0.3c0-0.1,0.1-0.2,0.2-0.2c-0.4-0.2-1.3-0.7-2.2-1.3c3.7,3.8,4.6,8.4,4.8,9.7c0,0,0.1,0,0.1,0
												c0,0,0.1,0,0.1,0c0.3,0.1,0.4,0.4,0.3,0.6c-0.1,0.2-0.4,0.4-0.6,0.3c0,0-0.1,0-0.1,0c-0.2-0.1-0.4-0.4-0.3-0.6
												c0-0.1,0.1-0.2,0.2-0.2c-0.1-1-0.9-4.6-3.4-8c0,0.1-0.1,0.2-0.2,0.3c0.6,1.4,0.9,2.7,1.1,3.4c0.1,0.1,0.2,0.3,0.1,0.5
												c0,0,0,0,0,0c0,0,0,0,0,0l0,0c-0.1,0.2-0.4,0.4-0.6,0.3c-0.2-0.1-0.4-0.4-0.3-0.6c0,0,0-0.1,0-0.1
												c0.1-0.2,0.2-0.3,0.4-0.3c-0.2-0.7-0.5-1.9-1-3.1c-0.2,0-0.4,0-0.5-0.2c-0.1-0.2,0-0.4,0.1-0.6c-0.3-0.5-0.6-1-1-1.5
												c1.6,3.4,0.5,7.7-0.3,9.9c-0.2,0.6-0.4,1-0.5,1.3c0.1,0.1,0.2,0.3,0.1,0.5c-0.2,0.6-1.1,0.3-0.9-0.3
												c0.1-0.2,0.3-0.3,0.5-0.3c0.5-1.1,2.9-7,0.6-11.2c0,0.3,0.1,0.6,0.1,1c0.5,1.3,0.9,3.5,0.1,5.7c-0.4,1.1-1.1,2.3-2.2,3.4
												c0.2,0.2,0.2,0.4,0.1,0.6c-0.1,0.2-0.5,0.3-0.7,0.1c-0.1-0.1-0.1-0.1-0.2-0.2c-0.2-0.2-0.3-0.4-0.1-0.7
												c0.1-0.2,0.5-0.3,0.7-0.1c1.2-1.2,1.9-2.5,2.3-3.7c0,0,0,0-0.1,0.1c0,0,0,0,0,0c-0.1,0.2-0.4,0.4-0.6,0.3
												c0,0-0.1,0-0.1,0c-0.1,0-0.2-0.1-0.2-0.2c-0.5,1-1.2,2.1-2.1,3.1c0.1,0.1,0.1,0.2,0,0.4c-0.2,0.6-1.1,0.3-0.9-0.3
												c0.1-0.3,0.4-0.4,0.6-0.3c2.9-3.1,3.2-6.3,3.1-8.2c0-0.1-0.1-0.2-0.1-0.2c0.4,4-3.2,7.5-3.8,8c0,0.1,0,0.2,0,0.3
												c-0.2,0.6-1.1,0.3-0.9-0.3c0.1-0.3,0.5-0.4,0.7-0.2c0.6-0.5,3.8-3.6,3.7-7.2c0,0,0,0.1,0,0.1c-0.7,2-2.1,3.9-3.1,5.2
												c0,0.1,0,0.1,0,0.2c-0.2,0.6-1.1,0.3-0.9-0.3c0.1-0.4,0.5-0.4,0.8-0.2c0.6-0.8,1.4-1.8,2-2.9c-0.2,0.2-0.5,0.1-0.6,0
												c-0.9,1.3-1.9,2.7-3.2,3.6c0,0.1,0,0.1,0,0.2c-0.1,0.3-0.4,0.4-0.7,0.3c-0.1,0.1-0.2,0.1-0.3,0.2c0,0,0,0.1,0,0.1
												c0,0,0,0.1,0,0.1c-0.1,0.2-0.4,0.4-0.6,0.3c-0.2-0.1-0.4-0.4-0.3-0.6c0,0,0-0.1,0-0.1c0.1-0.2,0.4-0.4,0.6-0.3
												c0.1,0,0.2,0.1,0.2,0.2c0,0,0.1,0,0.1-0.1c0-0.1-0.1-0.2,0-0.3c0.1-0.4,0.6-0.4,0.8-0.2c1.2-0.9,2.3-2.3,3.1-3.6
												c0-0.1,0-0.1,0-0.2c0.1-0.1,0.2-0.2,0.3-0.3c0.3-0.4,0.5-0.8,0.7-1.2c-2.7,3.1-6.9,4.4-6.9,4.4l-0.1-0.3
												c0.1,0,4.6-1.4,7.2-4.8c-2.2,1.6-6.4,3-6.6,3l-0.1-0.3c0,0,2.5-0.8,4.6-1.8c-0.2-0.1-0.3-0.3-0.2-0.6
												c0.2-0.5,1-0.3,0.9,0.2c0.6-0.3,1.1-0.7,1.5-1c0-0.1,0-0.1,0-0.2c0.1-0.2,0.3-0.3,0.4-0.3c0,0,0,0,0,0s0,0,0,0l-0.2-0.5
												c-1.3-0.2-3.4,0.4-5.1,1c0,0.1,0,0.1,0,0.2c-0.1,0.4-0.6,0.4-0.8,0.1c-0.6,0.2-1.1,0.4-1.4,0.6c0,0.2-0.1,0.4-0.3,0.5
												c-0.1,0-0.1,0-0.2,0c0,0-0.1,0-0.1,0c-0.1,0-0.1,0-0.2,0c-0.3,0-0.5,0-0.7-0.2c0-0.1-0.1-0.2,0-0.3
												c-2.5,0.7-5.6,1.2-8.9,1.2c-2.5,1.3-5.9,3.9-7.4,8.6c-2.6,7.8-0.6,17.7-3,22.1c0,0,18.7,3.4,26.6-4.5
												c7.8-7.9,5-21.7,5-21.7s3.9,11.1,0,19.3c0,0,0,0,0,0l0.4,0.2c0-0.1,0-0.2,0-0.2c0,0.1,0,0.2,0.1,0.2c0,0,0,0,0,0
												c12.1,7.8,24,5.2,24,5.2c3.2-5.1,1.8-12.6,0.1-18.2c0-0.1-0.2-0.5-0.2-0.6c-0.9-2.8-1.9-5-2.4-6c-4,0.4-8.5-0.1-13.3-1.9
												c4.7,1.7,20.8,5.5,35.3-12.8c0,0-9.7-8.8-18.4-11.6c-8.7-2.8-17.7,5.4-19.6,7c0,0,0.7-0.8,2-1.9c0.2-0.4,0.4-0.9,0.8-1.8
												l0.5-2.2c0.9-5.1,2.3-9.1,3.9-12.4c0.5-1.3,1.2-2.6,2.2-4.1c1-1.6,2-2.9,3-4c1.1-1.3,2.4-2.5,3.7-3.4
												c3-2.2,6.8-3.6,7.5-2.5c0,0.1,0.1,0.1,0.1,0.2c0.1,0.1,0.1,0.2,0.1,0.3c0.3,1.3-1.8,2-4.6,3.2c-0.1,0-0.2,0.1-0.2,0.1
												c-0.1,0-0.1,0-0.2,0.1c-0.1,0-0.1,0.1-0.2,0.1c-1.6,0.7-3.5,1.6-5.2,2.8c-2.1,1.5-3.6,3.5-4.6,5.3
												c-0.1,0.2-0.2,0.4-0.3,0.6c0,0,0,0,0,0c-0.5,1.1-1,2.4-1.5,3.9c-0.1,0.4-0.2,0.7-0.2,0.7l-0.1,0
												c-0.6,2.1-1.2,4.4-1.6,6.3c0.7-1.4,1.5-3,2.4-4.9c5-9.9,12.4-12.9,21.2-15.8C944.8,152.2,952.1,155.5,951.5,156.8z
												 M944.7,168.2c-0.2-0.3-0.6-0.4-0.9-0.2c-0.3,0.2-0.4,0.6-0.2,0.9c0.2,0.3,0.6,0.4,0.9,0.2S944.8,168.5,944.7,168.2z
												 M939.9,168.7c-0.2-0.4-0.7-0.5-1.1-0.3c-0.4,0.2-0.5,0.7-0.3,1.1c0.2,0.4,0.7,0.5,1.1,0.3
												C940,169.6,940.1,169.1,939.9,168.7z M936.1,169.5c-0.3-0.4-0.8-0.6-1.2-0.3s-0.6,0.8-0.3,1.2s0.8,0.6,1.2,0.3
												S936.4,169.9,936.1,169.5z M932.5,171c-0.3-0.5-1-0.7-1.6-0.4s-0.7,1-0.4,1.6c0.3,0.5,1,0.7,1.6,0.4
												S932.8,171.5,932.5,171z M906.8,216.3c0,0-1,6.2,2.6,7.5c1.2,0.4,2.1,0.4,2.8,0.2c-0.2-0.2-0.4-0.5-0.6-0.8
												C909.6,223.5,907.1,222.5,906.8,216.3z M910.7,222C910.7,222,910.8,222,910.7,222c-0.2-0.4-0.5-0.9-0.8-1.4
												c0,0-0.1-0.1-0.2-0.4C909.6,221,909.9,221.8,910.7,222z M893.9,239.8c0-0.2-0.2-0.4-0.5-0.4c-0.2,0-0.5,0.2-0.4,0.5
												c0,0.2,0.2,0.4,0.5,0.4S893.9,240,893.9,239.8z M893.7,237.1c0-0.3-0.2-0.5-0.5-0.5s-0.5,0.2-0.5,0.5
												c0,0.3,0.2,0.5,0.5,0.5C893.5,237.7,893.7,237.4,893.7,237.1z M894.1,234.3c0-0.4-0.3-0.7-0.7-0.7
												c-0.4,0-0.7,0.3-0.7,0.7c0,0.4,0.3,0.7,0.7,0.7C893.8,234.9,894.1,234.6,894.1,234.3z M894.9,231.3
												c0-0.5-0.4-0.9-0.9-0.9c-0.5,0-0.9,0.4-0.9,0.9c0,0.5,0.4,0.9,0.9,0.9C894.6,232.2,895,231.8,894.9,231.3z M874.8,157.1
												c0.1-0.1,0.2-0.3,0.1-0.4s-0.3-0.2-0.4-0.1c-0.1,0.1-0.2,0.3-0.1,0.4C874.4,157.2,874.6,157.2,874.8,157.1z M860,146.1
												c-0.1,0.1-0.2,0.3-0.1,0.4c0.1,0.1,0.3,0.2,0.4,0.1c0.1-0.1,0.2-0.3,0.1-0.4C860.4,146,860.2,146,860,146.1z
												 M876.5,158.5c0.1,0.2,0.4,0.2,0.6,0.1c0.2-0.1,0.2-0.4,0.1-0.6c-0.1-0.2-0.4-0.2-0.6-0.1
												C876.4,158,876.3,158.3,876.5,158.5z M861,147.3c-0.2,0.1-0.2,0.4-0.1,0.6c0.1,0.2,0.4,0.2,0.6,0.1
												c0.2-0.1,0.2-0.4,0.1-0.6C861.4,147.2,861.2,147.2,861,147.3z M878.2,159.4c-0.3,0.2-0.3,0.6-0.1,0.9
												c0.2,0.3,0.6,0.3,0.9,0.1c0.3-0.2,0.3-0.6,0.1-0.9C878.9,159.3,878.5,159.2,878.2,159.4z M861.9,148.5
												c-0.3,0.2-0.3,0.6-0.1,0.9s0.6,0.3,0.9,0.1c0.3-0.2,0.3-0.6,0.1-0.9C862.5,148.4,862.2,148.3,861.9,148.5z M863.4,150.2
												c-2,1.5,2.9,4.1,2.9,4.1S865.4,148.6,863.4,150.2z M872.2,147.6c0,0,0.2,0.6,0.3,1.5
												C872.5,148.5,872.4,147.9,872.2,147.6z M875.9,140.1c0.1-0.2,0.1-0.3,0.1-0.3C876,139.9,876,140,875.9,140.1z
												 M887.5,206.2c0.3-0.2,0.5-0.2,0.5-0.2C887.8,206,887.7,206.1,887.5,206.2z M878.6,213c-0.2,0.2,6.5-5.3,8.9-6.8
												C886,207,881.1,209.9,878.6,213z M889,213.4c0,0-8.9,7.7-10.7,10.3C878.1,223.8,887.2,215.6,889,213.4z M895.3,212.4
												c-1.3,8.6-10.6,13.9-10.6,13.9C896.1,222,895.3,212.4,895.3,212.4z M923.1,224.7c-1-4.2-13-13-13-13
												C912.1,214.3,923.2,225.1,923.1,224.7z M905,211.2c0,0,3.7,8.4,8.6,12.1C914.3,223.8,908.5,217,905,211.2z M921,197.6
												c-6.4,0.5-13.9,0.1-13.8,0.2C911.6,198.5,916.9,198.2,921,197.6z M928.2,196.4c0,0-3,0.7-7.2,1.2
												C924,197.4,926.6,197,928.2,196.4z M909.3,193.2c-0.3,0.1,20.9-1.6,25.4-3.7C934.6,189.5,914.4,191.5,909.3,193.2z
												 M907.5,188.4c8.2-5.5,19-5.8,19-5.8C917.5,179.8,907.2,188.6,907.5,188.4z M906.6,170c-1.1,4.7-6.3,14.4-6,14.1
												C903.8,181.9,906.1,172.5,906.6,170z M906.6,170c0.1-0.2,0.1-0.4,0.1-0.6C906.7,169.4,906.7,169.7,906.6,170z
												 M897.9,160.6c-0.2-1.3-0.5-2.3-0.8-3C897.1,157.7,897.5,158.9,897.9,160.6z M899.2,174c0.9-3.1-0.4-9.5-1.3-13.3
												C898.8,165.8,899,174.6,899.2,174z M897.2,183c-3.2-7.6-3.7-20.3-3.7-20.3C891.5,171.8,897.2,183,897.2,183z
												 M885.1,188.5c-4.3-4-20.1-10.5-20.1-10.5C868.9,180.8,885.4,188.8,885.1,188.5z M882.9,193.1
												c-10.6-3.9-20.2-12.7-20.2-12.7C868.6,189.6,883.3,193.2,882.9,193.1z M900.7,193c0.1,0.2,0.4,0.3,0.6,0.2
												c0,0,0.1,0,0.1,0c0.2-0.1,0.3-0.4,0.2-0.6c-0.1-0.2-0.4-0.3-0.6-0.2c0,0-0.1,0-0.1,0.1
												C900.7,192.5,900.6,192.8,900.7,193z M896.8,184.5c0-0.1,0-0.1,0.1-0.1c0.1-0.2,0-0.5-0.3-0.6s-0.5,0-0.6,0.3
												c0,0.1,0,0.1-0.1,0.2c-0.1,0.2,0,0.5,0.3,0.6C896.4,184.8,896.7,184.7,896.8,184.5z M887.8,189
												C887.8,189,887.9,189,887.8,189c0.3,0.1,0.6,0,0.7-0.3c0.1-0.2,0-0.5-0.3-0.6c0,0-0.1,0-0.1,0c-0.2-0.1-0.5,0-0.6,0.3
												C887.4,188.6,887.6,188.9,887.8,189z M900.7,206.9C900.7,206.9,900.7,206.9,900.7,206.9c0.1,0.3,0.4,0.4,0.7,0.3
												c0.2-0.1,0.3-0.4,0.2-0.6c0,0,0,0,0-0.1c-0.1-0.2-0.4-0.3-0.6-0.2C900.7,206.3,900.6,206.6,900.7,206.9z M906.3,188.6
												c0.1-0.2,0-0.5-0.3-0.6s-0.5,0-0.6,0.3c0,0.1,0,0.1-0.1,0.2c-0.1,0.2,0,0.5,0.3,0.6c0.2,0.1,0.5,0,0.6-0.3
												C906.3,188.7,906.3,188.6,906.3,188.6z M904.7,203.8c-0.1,0.2,0,0.5,0.3,0.6s0.5,0,0.6-0.3c0-0.1,0-0.1,0.1-0.2
												c0.1-0.2,0-0.5-0.3-0.6c-0.2-0.1-0.5,0-0.6,0.3C904.7,203.7,904.7,203.8,904.7,203.8z M893.6,209.2c0,0,0.1-0.1,0.1-0.1
												c0.2-0.2,0.2-0.5,0.1-0.7c-0.2-0.2-0.5-0.2-0.7-0.1c0,0-0.1,0.1-0.1,0.1c-0.2,0.2-0.2,0.5-0.1,0.7
												C893.1,209.3,893.4,209.3,893.6,209.2z M884,195.1C884.1,195.1,884.1,195.1,884,195.1c0.3,0.1,0.6,0,0.7-0.3
												s0-0.5-0.3-0.6c0,0-0.1,0-0.1,0c-0.2-0.1-0.5,0-0.6,0.3S883.8,195,884,195.1z M889.2,205.9
												C889.2,205.9,889.2,205.8,889.2,205.9c-0.3-0.1-0.6,0-0.7,0.3c-0.1,0.2,0,0.5,0.3,0.6c0,0,0.1,0,0.1,0
												c0.2,0.1,0.5,0,0.6-0.3C889.6,206.2,889.5,206,889.2,205.9z M886.8,201.2C886.7,201.2,886.7,201.2,886.8,201.2
												c-0.3-0.1-0.6,0-0.7,0.3s0,0.5,0.3,0.6c0,0,0.1,0,0.1,0c0.2,0.1,0.5,0,0.6-0.3S887,201.3,886.8,201.2z M898.9,185.4
												c0-0.1,0-0.1,0.1-0.2c0.1-0.2,0-0.5-0.3-0.6s-0.5,0-0.6,0.3c0,0.1,0,0.1-0.1,0.1c-0.1,0.2,0,0.5,0.3,0.6
												C898.5,185.7,898.8,185.6,898.9,185.4z M891.8,186.4c0.2-0.6-0.7-0.9-0.9-0.3C890.7,186.6,891.6,187,891.8,186.4z
												 M886.5,191.6c0.1,0.2,0.4,0.3,0.6,0.2c0,0,0.1,0,0.1,0c0.2-0.1,0.3-0.4,0.2-0.6c-0.1-0.2-0.4-0.3-0.6-0.2
												c0,0-0.1,0-0.1,0.1C886.5,191,886.4,191.3,886.5,191.6z M902.7,192.2c-0.1,0.2,0,0.5,0.3,0.6c0.2,0.1,0.5,0,0.6-0.3
												c0,0,0-0.1,0-0.1c0.1-0.2,0-0.5-0.3-0.6C903.1,191.8,902.8,191.9,902.7,192.2C902.7,192.2,902.7,192.2,902.7,192.2z
												 M899,189.8c0.2-0.6-0.7-0.9-0.9-0.3C897.9,190.1,898.8,190.4,899,189.8z M886.8,193.9c0.2-0.6-0.7-0.9-0.9-0.3
												S886.6,194.5,886.8,193.9z M889.7,201c-0.2,0.6,0.7,0.9,0.9,0.3C890.8,200.7,889.9,200.4,889.7,201z M890.3,203.1
												c0.2-0.6-0.7-0.9-0.9-0.3C889.2,203.4,890.1,203.7,890.3,203.1z M909.9,201.9c-0.5-0.2-0.9-0.4-1.4-0.6
												C908.5,201.4,909,201.6,909.9,201.9z M898.1,195c0.1-0.1,0.1-0.1,0.2-0.2C898.1,194.9,898.1,195,898.1,195"/>
										</g>
									</g>
								</g>
							</g>
						</g>
					</g>
				</g>
			</g>
		</g>
	</g>
	<rect x="272" y="72" class="st26" width="313" height="54"/>
</g>
<g id="Karishma_Garg">
	<polygon class="st26" points="681,137.1 286.9,136.9 287.4,81.1 681.5,81.4 	"/>
	<text transform="matrix(1 0 0 1 287.3771 118.1025)" class="st27 st28 st29">Karishma Garg</text>
	<polygon class="st26" points="647.1,177.1 328.1,177 326.6,142.9 645.6,143 	"/>
	<text transform="matrix(1 0 0 1 327.3773 160.6217)" class="st1 st30 st31">Front-End Web Developer</text>
</g>
</svg>
